<?xml version="1.0" standalone="no"?>
<svg xmlns="http://www.w3.org/2000/svg" width="24" height="24"><rect width="24" height="24" opacity="0"></rect><g mask="url(#hms_mask_0)"><path d="M12.96 1.2Q12.5 0.98 12.01 0.98Q11.52 0.98 11.06 1.2L3.89 4.54Q3.34 4.78 3.02 5.28Q2.71 5.78 2.71 6.41L2.71 11.18Q2.71 13.82 3.82 16.24Q4.92 18.65 6.9 20.4Q8.88 22.15 11.42 22.92Q12.02 23.06 12.6 22.92Q15.17 22.15 17.14 20.41Q19.1 18.67 20.2 16.28Q21.29 13.9 21.29 11.21L21.29 6.41Q21.29 5.78 20.96 5.29Q20.64 4.8 20.11 4.56L12.96 1.2Z" fill="rgba(245,153,10,1)"></path></g><defs><mask id="hms_mask_0"><rect width="24" height="24" fill="#ffffff"></rect><g><path d="M14.4 10.08Q14.4 10.7 14.1 11.23Q13.8 11.76 13.3 12.1L13.99 15.48Q14.06 15.79 13.86 16.06Q13.66 16.32 13.32 16.32L10.68 16.32Q10.34 16.32 10.13 16.07Q9.91 15.82 9.98 15.48L10.7 12.1Q10.2 11.76 9.9 11.23Q9.6 10.7 9.6 10.08Q9.6 9.43 9.92 8.88Q10.25 8.33 10.8 8Q11.35 7.68 12 7.68Q12.65 7.68 13.2 8Q13.75 8.33 14.08 8.88Q14.4 9.43 14.4 10.08Z" fill="#000000"></path></g></mask></defs></svg>