<?xml version="1.0" standalone="no"?>
<svg xmlns="http://www.w3.org/2000/svg" width="24" height="24"><rect width="24" height="24" opacity="0"></rect><g mask="url(#hms_mask_0)"><path d="M12.96 1.2Q12.5 0.98 12.01 0.98Q11.52 0.98 11.06 1.2L3.89 4.54Q3.34 4.78 3.02 5.28Q2.71 5.78 2.71 6.41L2.71 11.18Q2.71 13.82 3.82 16.24Q4.92 18.65 6.9 20.4Q8.88 22.15 11.42 22.92Q11.71 22.99 12 22.99Q12.31 22.99 12.6 22.92Q15.17 22.15 17.14 20.41Q19.1 18.67 20.2 16.28Q21.29 13.9 21.29 11.21L21.29 6.41Q21.29 5.78 20.96 5.29Q20.64 4.8 20.11 4.56L12.96 1.2Z" fill="rgba(101,187,92,1)"></path></g><defs><mask id="hms_mask_0"><rect width="24" height="24" fill="#ffffff"></rect><g><path d="M10.73 15.74Q9.96 15.74 9.36 15.19L6.72 12.53Q6.5 12.31 6.5 12Q6.5 11.69 6.72 11.47Q6.94 11.26 7.25 11.26Q7.56 11.26 7.78 11.47L10.42 14.11Q10.54 14.23 10.73 14.23Q10.92 14.23 11.04 14.11L16.2 8.93Q16.44 8.71 16.74 8.71Q17.04 8.71 17.28 8.93Q17.5 9.17 17.5 9.48Q17.5 9.79 17.28 10.01L12.1 15.19Q11.81 15.46 11.46 15.6Q11.11 15.74 10.73 15.74Z" fill="#000000"></path></g></mask></defs></svg>