<!-- icon666.com - MILLIONS OF FREE VECTOR ICONS --><svg viewBox="0 0 64 64" xmlns="http://www.w3.org/2000/svg"><g id="video"><path d="m54.67 21.6a2.55 2.55 0 0 0 -2.43-.2l-.22.12-6.82 4.48v-3.57a4.7 4.7 0 0 0 -4.69-4.69h-27.65a4.7 4.7 0 0 0 -4.69 4.69v19.14a4.7 4.7 0 0 0 4.69 4.69h27.65a4.7 4.7 0 0 0 4.69-4.69v-3.57l6.8 4.48.22.12a2.56 2.56 0 0 0 3.6-2.35v-16.5a2.55 2.55 0 0 0 -1.15-2.15zm-1.84 17.82-6.76-4.42a2.5 2.5 0 0 0 -3.87 2v4.52a1.69 1.69 0 0 1 -1.69 1.69h-27.65a1.69 1.69 0 0 1 -1.69-1.69v-19.09a1.69 1.69 0 0 1 1.69-1.69h27.65a1.69 1.69 0 0 1 1.69 1.69v4.57a2.5 2.5 0 0 0 3.88 2l6.76-4.46z"></path></g></svg>