<?xml version="1.0" encoding="UTF-8"?>
<svg version="1.1" xmlns="http://www.w3.org/2000/svg" width="1024" height="1024">
<path d="M0 0 C1.36115577 -0.00571301 2.72230676 -0.01268085 4.08345032 -0.02079773 C7.75722955 -0.03864479 11.43076881 -0.03757646 15.10457826 -0.03185534 C18.18323767 -0.0287502 21.26185187 -0.03487082 24.34050483 -0.04089409 C31.61083103 -0.05491089 38.88103967 -0.05340272 46.15136719 -0.04199219 C53.62398158 -0.03052251 61.09623657 -0.04457359 68.56880361 -0.07138866 C75.00905993 -0.09362456 81.44920409 -0.10016511 87.88949603 -0.09431225 C91.72509699 -0.09095918 95.56046787 -0.09324635 99.39603615 -0.11056328 C103.00696813 -0.12615621 106.61737276 -0.12194229 110.22828484 -0.10325813 C112.16536178 -0.09788038 114.10246311 -0.11199322 116.03948975 -0.12695312 C129.90155986 -0.01157028 139.54781742 3.95845321 149.47338867 13.47045898 C156.87683544 21.19159097 161.41901148 30.37315611 161.46430969 41.12599182 C161.47504265 42.87736702 161.47504265 42.87736702 161.48599243 44.66412354 C161.48868134 45.94156433 161.49137024 47.21900513 161.49414062 48.53515625 C161.50040887 49.89719312 161.50705599 51.25922828 161.51405334 52.6212616 C161.53506035 57.09181536 161.54545539 61.56236932 161.55541992 66.03295898 C161.5594693 67.57554581 161.56358628 69.11813245 161.56777 70.66071892 C161.58681753 77.91210906 161.60104717 85.16348907 161.60938197 92.41489941 C161.61914076 100.76599402 161.64542638 109.11682261 161.68588287 117.46782357 C161.71612647 123.93426687 161.73085879 130.4006343 161.73416299 136.86714691 C161.73650488 140.7235028 161.74535158 144.57957439 161.77062416 148.43585396 C161.79405369 152.06965328 161.7980792 155.70298414 161.78786278 159.33683968 C161.78713813 161.28969486 161.80612604 163.24252706 161.82592773 165.19528198 C161.75727958 176.93341964 158.54463567 186.15426339 151.31713867 195.40405273 C150.83889648 196.02022461 150.3606543 196.63639648 149.86791992 197.27124023 C144.24527593 203.64451428 134.70222546 208.7607126 126.31713867 210.40405273 C124.41164133 210.50064181 122.50312646 210.54318628 120.59519958 210.55122375 C119.42761612 210.55837906 118.26003265 210.56553436 117.05706787 210.57290649 C115.77962708 210.5755954 114.50218628 210.5782843 113.18603516 210.58105469 C111.82399829 210.58732294 110.46196312 210.59397006 109.09992981 210.60096741 C104.62937604 210.62197441 100.15882209 210.63236945 95.68823242 210.64233398 C94.1456456 210.64638337 92.60305895 210.65050034 91.06047249 210.65468407 C83.80908235 210.67373159 76.55770234 210.68796124 69.306292 210.69629604 C60.95519739 210.70605482 52.60436879 210.73234044 44.25336784 210.77279693 C37.78692454 210.80304054 31.32055711 210.81777286 24.8540445 210.82107705 C20.9976886 210.82341894 17.14161702 210.83226564 13.28533745 210.85753822 C9.65153812 210.88096776 6.01820726 210.88499326 2.38435173 210.87477684 C0.43149654 210.87405219 -1.52133565 210.89304011 -3.47409058 210.9128418 C-15.21222823 210.84419364 -24.43307198 207.63154974 -33.68286133 200.40405273 C-34.2990332 199.92581055 -34.91520508 199.44756836 -35.55004883 198.95483398 C-41.92332287 193.33219 -47.03952119 183.78913953 -48.68286133 175.40405273 C-48.77945041 173.49855539 -48.82199487 171.59004053 -48.83003235 169.68211365 C-48.83718765 168.51453018 -48.84434296 167.34694672 -48.85171509 166.14398193 C-48.85440399 164.86654114 -48.8570929 163.58910034 -48.85986328 162.27294922 C-48.86613153 160.91091235 -48.87277865 159.54887719 -48.879776 158.18684387 C-48.90078301 153.71629011 -48.91117805 149.24573615 -48.92114258 144.77514648 C-48.92519196 143.23255966 -48.92930894 141.68997302 -48.93349266 140.14738655 C-48.95254018 132.89599641 -48.96676983 125.6446164 -48.97510463 118.39320606 C-48.98486342 110.04211145 -49.01114903 101.69128286 -49.05160552 93.3402819 C-49.08184913 86.8738386 -49.09658145 80.40747117 -49.09988564 73.94095856 C-49.10222753 70.08460267 -49.11107423 66.22853108 -49.13634682 62.37225151 C-49.15977635 58.73845219 -49.16380185 55.10512133 -49.15358543 51.47126579 C-49.15286079 49.5184106 -49.1718487 47.56557841 -49.19165039 45.61282349 C-49.11261282 32.09820135 -44.55598594 21.52009398 -35.37036133 11.65405273 C-25.26577072 2.06024363 -13.46278034 -0.04817952 0 0 Z " fill="#FFFFFF" transform="translate(578.682861328125,529.595947265625)"/>
<path d="M0 0 C1.36115577 -0.00571301 2.72230676 -0.01268085 4.08345032 -0.02079773 C7.75722955 -0.03864479 11.43076881 -0.03757646 15.10457826 -0.03185534 C18.18323767 -0.0287502 21.26185187 -0.03487082 24.34050483 -0.04089409 C31.61083103 -0.05491089 38.88103967 -0.05340272 46.15136719 -0.04199219 C53.62398158 -0.03052251 61.09623657 -0.04457359 68.56880361 -0.07138866 C75.00905993 -0.09362456 81.44920409 -0.10016511 87.88949603 -0.09431225 C91.72509699 -0.09095918 95.56046787 -0.09324635 99.39603615 -0.11056328 C103.00696813 -0.12615621 106.61737276 -0.12194229 110.22828484 -0.10325813 C112.16536178 -0.09788038 114.10246311 -0.11199322 116.03948975 -0.12695312 C129.90155986 -0.01157028 139.54781742 3.95845321 149.47338867 13.47045898 C156.87683544 21.19159097 161.41901148 30.37315611 161.46430969 41.12599182 C161.47504265 42.87736702 161.47504265 42.87736702 161.48599243 44.66412354 C161.48868134 45.94156433 161.49137024 47.21900513 161.49414062 48.53515625 C161.50040887 49.89719312 161.50705599 51.25922828 161.51405334 52.6212616 C161.53506035 57.09181536 161.54545539 61.56236932 161.55541992 66.03295898 C161.5594693 67.57554581 161.56358628 69.11813245 161.56777 70.66071892 C161.58681753 77.91210906 161.60104717 85.16348907 161.60938197 92.41489941 C161.61914076 100.76599402 161.64542638 109.11682261 161.68588287 117.46782357 C161.71612647 123.93426687 161.73085879 130.4006343 161.73416299 136.86714691 C161.73650488 140.7235028 161.74535158 144.57957439 161.77062416 148.43585396 C161.79405369 152.06965328 161.7980792 155.70298414 161.78786278 159.33683968 C161.78713813 161.28969486 161.80612604 163.24252706 161.82592773 165.19528198 C161.75727958 176.93341964 158.54463567 186.15426339 151.31713867 195.40405273 C150.83889648 196.02022461 150.3606543 196.63639648 149.86791992 197.27124023 C144.24527593 203.64451428 134.70222546 208.7607126 126.31713867 210.40405273 C124.41164133 210.50064181 122.50312646 210.54318628 120.59519958 210.55122375 C119.42761612 210.55837906 118.26003265 210.56553436 117.05706787 210.57290649 C115.77962708 210.5755954 114.50218628 210.5782843 113.18603516 210.58105469 C111.82399829 210.58732294 110.46196312 210.59397006 109.09992981 210.60096741 C104.62937604 210.62197441 100.15882209 210.63236945 95.68823242 210.64233398 C94.1456456 210.64638337 92.60305895 210.65050034 91.06047249 210.65468407 C83.80908235 210.67373159 76.55770234 210.68796124 69.306292 210.69629604 C60.95519739 210.70605482 52.60436879 210.73234044 44.25336784 210.77279693 C37.78692454 210.80304054 31.32055711 210.81777286 24.8540445 210.82107705 C20.9976886 210.82341894 17.14161702 210.83226564 13.28533745 210.85753822 C9.65153812 210.88096776 6.01820726 210.88499326 2.38435173 210.87477684 C0.43149654 210.87405219 -1.52133565 210.89304011 -3.47409058 210.9128418 C-15.21222823 210.84419364 -24.43307198 207.63154974 -33.68286133 200.40405273 C-34.2990332 199.92581055 -34.91520508 199.44756836 -35.55004883 198.95483398 C-41.92332287 193.33219 -47.03952119 183.78913953 -48.68286133 175.40405273 C-48.77945041 173.49855539 -48.82199487 171.59004053 -48.83003235 169.68211365 C-48.83718765 168.51453018 -48.84434296 167.34694672 -48.85171509 166.14398193 C-48.85440399 164.86654114 -48.8570929 163.58910034 -48.85986328 162.27294922 C-48.86613153 160.91091235 -48.87277865 159.54887719 -48.879776 158.18684387 C-48.90078301 153.71629011 -48.91117805 149.24573615 -48.92114258 144.77514648 C-48.92519196 143.23255966 -48.92930894 141.68997302 -48.93349266 140.14738655 C-48.95254018 132.89599641 -48.96676983 125.6446164 -48.97510463 118.39320606 C-48.98486342 110.04211145 -49.01114903 101.69128286 -49.05160552 93.3402819 C-49.08184913 86.8738386 -49.09658145 80.40747117 -49.09988564 73.94095856 C-49.10222753 70.08460267 -49.11107423 66.22853108 -49.13634682 62.37225151 C-49.15977635 58.73845219 -49.16380185 55.10512133 -49.15358543 51.47126579 C-49.15286079 49.5184106 -49.1718487 47.56557841 -49.19165039 45.61282349 C-49.11261282 32.09820135 -44.55598594 21.52009398 -35.37036133 11.65405273 C-25.26577072 2.06024363 -13.46278034 -0.04817952 0 0 Z " fill="#FFFFFF" transform="translate(332.682861328125,529.595947265625)"/>
<path d="M0 0 C1.1662088 -0.0071553 2.3324176 -0.01431061 3.53396606 -0.02168274 C4.81500214 -0.02437164 6.09603821 -0.02706055 7.41589355 -0.02983093 C8.77778293 -0.0360972 10.13967059 -0.04274415 11.5015564 -0.04974365 C15.97754732 -0.07077784 20.45353853 -0.08114966 24.92956543 -0.09111023 C26.47307859 -0.09515889 28.01659157 -0.09927584 29.56010437 -0.10346031 C36.8168373 -0.12251544 44.07356007 -0.13674232 51.33031321 -0.14507228 C59.6899079 -0.1548277 68.0492366 -0.18110125 76.40873766 -0.22157317 C82.87940705 -0.2518178 89.35000061 -0.26654928 95.82073927 -0.26985329 C99.68046339 -0.2721955 103.5399035 -0.28104597 107.39955139 -0.30631447 C111.03744119 -0.32974506 114.67486305 -0.33376908 118.31280899 -0.32355309 C120.26805912 -0.32282841 122.22328628 -0.34181669 124.17843628 -0.36161804 C137.652047 -0.28291611 147.71842212 4.14095257 157.62487793 13.17842102 C164.71902828 20.51170004 169.50223425 30.47237037 169.54548645 40.74885559 C169.55621941 42.49816879 169.55621941 42.49816879 169.56716919 44.28282166 C169.56985809 45.56385773 169.572547 46.8448938 169.57531738 48.16474915 C169.58158365 49.52663852 169.5882306 50.88852619 169.5952301 52.25041199 C169.61626429 56.72640291 169.62663611 61.20239412 169.63659668 65.67842102 C169.64064534 67.22193418 169.64476229 68.76544716 169.64894676 70.30895996 C169.66800189 77.56569289 169.68222877 84.82241566 169.69055873 92.0791688 C169.70031415 100.43876349 169.7265877 108.7980922 169.76705962 117.15759325 C169.79730425 123.62826264 169.81203573 130.0988562 169.81533974 136.56959486 C169.81768195 140.42931899 169.82653242 144.28875909 169.85180092 148.14840698 C169.87523151 151.78629678 169.87925553 155.42371864 169.86903954 159.06166458 C169.86831486 161.01691471 169.88730314 162.97214187 169.90710449 164.92729187 C169.82840256 178.40090259 165.40453388 188.46727771 156.36706543 198.37373352 C149.03378641 205.46788387 139.07311608 210.25108984 128.79663086 210.29434204 C127.63042206 210.30149734 126.46421326 210.30865265 125.26266479 210.31602478 C123.34111069 210.32005814 123.34111069 210.32005814 121.3807373 210.32417297 C120.01884793 210.33043924 118.65696026 210.33708619 117.29507446 210.34408569 C112.81908354 210.36511988 108.34309233 210.3754917 103.86706543 210.38545227 C102.32355227 210.38950093 100.78003929 210.39361788 99.23652649 210.39780235 C91.97979356 210.41685748 84.72307079 210.43108436 77.46631765 210.43941432 C69.10672296 210.44916974 60.74739425 210.47544329 52.3878932 210.51591522 C45.91722381 210.54615984 39.44663025 210.56089132 32.97589159 210.56419533 C29.11616746 210.56653754 25.25672736 210.57538801 21.39707947 210.60065651 C17.75918967 210.6240871 14.12176781 210.62811112 10.48382187 210.61789513 C8.52857174 210.61717046 6.57334458 210.63615873 4.61819458 210.65596008 C-8.85541614 210.57725815 -18.92179126 206.15338947 -28.82824707 197.11592102 C-35.92239742 189.782642 -40.70560339 179.82197167 -40.74885559 169.54548645 C-40.75601089 168.37927765 -40.7631662 167.21306885 -40.77053833 166.01152039 C-40.77322723 164.73048431 -40.77591614 163.44944824 -40.77868652 162.1295929 C-40.78495279 160.76770352 -40.79159974 159.40581586 -40.79859924 158.04393005 C-40.81963343 153.56793913 -40.83000525 149.09194792 -40.83996582 144.61592102 C-40.84401448 143.07240786 -40.84813143 141.52889488 -40.8523159 139.98538208 C-40.87137103 132.72864915 -40.88559791 125.47192638 -40.89392787 118.21517324 C-40.90368329 109.85557855 -40.92995684 101.49624985 -40.97042876 93.13674879 C-41.00067339 86.6660794 -41.01540487 80.19548584 -41.01870888 73.72474718 C-41.02105109 69.86502306 -41.02990156 66.00558295 -41.05517006 62.14593506 C-41.07860065 58.50804526 -41.08262467 54.8706234 -41.07240868 51.23267746 C-41.07168401 49.27742733 -41.09067228 47.32220017 -41.11047363 45.36705017 C-41.0317717 31.89343945 -36.60790302 21.82706433 -27.57043457 11.92060852 C-20.23715555 4.82645817 -10.27648522 0.0432522 0 0 Z " fill="#FFFFFF" transform="translate(570.6016845703125,283.8528289794922)"/>
<path d="M0 0 C1.1662088 -0.0071553 2.3324176 -0.01431061 3.53396606 -0.02168274 C4.81500214 -0.02437164 6.09603821 -0.02706055 7.41589355 -0.02983093 C8.77778293 -0.0360972 10.13967059 -0.04274415 11.5015564 -0.04974365 C15.97754732 -0.07077784 20.45353853 -0.08114966 24.92956543 -0.09111023 C26.47307859 -0.09515889 28.01659157 -0.09927584 29.56010437 -0.10346031 C36.8168373 -0.12251544 44.07356007 -0.13674232 51.33031321 -0.14507228 C59.6899079 -0.1548277 68.0492366 -0.18110125 76.40873766 -0.22157317 C82.87940705 -0.2518178 89.35000061 -0.26654928 95.82073927 -0.26985329 C99.68046339 -0.2721955 103.5399035 -0.28104597 107.39955139 -0.30631447 C111.03744119 -0.32974506 114.67486305 -0.33376908 118.31280899 -0.32355309 C120.26805912 -0.32282841 122.22328628 -0.34181669 124.17843628 -0.36161804 C137.652047 -0.28291611 147.71842212 4.14095257 157.62487793 13.17842102 C164.71902828 20.51170004 169.50223425 30.47237037 169.54548645 40.74885559 C169.55621941 42.49816879 169.55621941 42.49816879 169.56716919 44.28282166 C169.56985809 45.56385773 169.572547 46.8448938 169.57531738 48.16474915 C169.58158365 49.52663852 169.5882306 50.88852619 169.5952301 52.25041199 C169.61626429 56.72640291 169.62663611 61.20239412 169.63659668 65.67842102 C169.64064534 67.22193418 169.64476229 68.76544716 169.64894676 70.30895996 C169.66800189 77.56569289 169.68222877 84.82241566 169.69055873 92.0791688 C169.70031415 100.43876349 169.7265877 108.7980922 169.76705962 117.15759325 C169.79730425 123.62826264 169.81203573 130.0988562 169.81533974 136.56959486 C169.81768195 140.42931899 169.82653242 144.28875909 169.85180092 148.14840698 C169.87523151 151.78629678 169.87925553 155.42371864 169.86903954 159.06166458 C169.86831486 161.01691471 169.88730314 162.97214187 169.90710449 164.92729187 C169.82840256 178.40090259 165.40453388 188.46727771 156.36706543 198.37373352 C149.03378641 205.46788387 139.07311608 210.25108984 128.79663086 210.29434204 C127.63042206 210.30149734 126.46421326 210.30865265 125.26266479 210.31602478 C123.34111069 210.32005814 123.34111069 210.32005814 121.3807373 210.32417297 C120.01884793 210.33043924 118.65696026 210.33708619 117.29507446 210.34408569 C112.81908354 210.36511988 108.34309233 210.3754917 103.86706543 210.38545227 C102.32355227 210.38950093 100.78003929 210.39361788 99.23652649 210.39780235 C91.97979356 210.41685748 84.72307079 210.43108436 77.46631765 210.43941432 C69.10672296 210.44916974 60.74739425 210.47544329 52.3878932 210.51591522 C45.91722381 210.54615984 39.44663025 210.56089132 32.97589159 210.56419533 C29.11616746 210.56653754 25.25672736 210.57538801 21.39707947 210.60065651 C17.75918967 210.6240871 14.12176781 210.62811112 10.48382187 210.61789513 C8.52857174 210.61717046 6.57334458 210.63615873 4.61819458 210.65596008 C-8.85541614 210.57725815 -18.92179126 206.15338947 -28.82824707 197.11592102 C-35.92239742 189.782642 -40.70560339 179.82197167 -40.74885559 169.54548645 C-40.75601089 168.37927765 -40.7631662 167.21306885 -40.77053833 166.01152039 C-40.77322723 164.73048431 -40.77591614 163.44944824 -40.77868652 162.1295929 C-40.78495279 160.76770352 -40.79159974 159.40581586 -40.79859924 158.04393005 C-40.81963343 153.56793913 -40.83000525 149.09194792 -40.83996582 144.61592102 C-40.84401448 143.07240786 -40.84813143 141.52889488 -40.8523159 139.98538208 C-40.87137103 132.72864915 -40.88559791 125.47192638 -40.89392787 118.21517324 C-40.90368329 109.85557855 -40.92995684 101.49624985 -40.97042876 93.13674879 C-41.00067339 86.6660794 -41.01540487 80.19548584 -41.01870888 73.72474718 C-41.02105109 69.86502306 -41.02990156 66.00558295 -41.05517006 62.14593506 C-41.07860065 58.50804526 -41.08262467 54.8706234 -41.07240868 51.23267746 C-41.07168401 49.27742733 -41.09067228 47.32220017 -41.11047363 45.36705017 C-41.0317717 31.89343945 -36.60790302 21.82706433 -27.57043457 11.92060852 C-20.23715555 4.82645817 -10.27648522 0.0432522 0 0 Z " fill="#FFFFFF" transform="translate(324.6016845703125,283.8528289794922)"/>
</svg>
