<?xml version="1.0" encoding="UTF-8"?>
<svg version="1.1" xmlns="http://www.w3.org/2000/svg" width="512" height="512">
<path d="M0 0 C0.6581369 0.00021149 1.3162738 0.00042297 1.99435425 0.00064087 C30.82460641 0.09285362 56.90881973 10.87627525 77.625 31.125 C98.62619125 52.40372513 107.74462127 80.23005238 107.63871765 109.61846924 C107.62513825 111.6226814 107.61144742 113.6268928 107.59765625 115.63110352 C107.59057324 117.76950273 107.58452337 119.90790557 107.579422 122.04631042 C107.5672485 126.6329469 107.54970606 131.21952036 107.52850342 135.80612373 C107.49686194 143.07518264 107.48915804 150.34414551 107.48681641 157.61326599 C107.48604599 159.45916638 107.48604599 159.45916638 107.48526001 161.3423577 C107.48421864 163.85782431 107.48321437 166.37329094 107.4822464 168.88875759 C107.47437148 185.79490995 107.4492113 202.70072857 107.36572266 219.60668945 C107.30947544 231.03396571 107.28906327 242.46070749 107.30892277 253.88811249 C107.31796231 259.92249598 107.3091336 265.95562544 107.25613403 271.98980904 C107.20643741 277.67284498 107.20422892 283.35401488 107.23660851 289.03715706 C107.24024587 291.10781611 107.22717674 293.17859235 107.19498634 295.24900436 C106.9852357 309.58247772 109.78413717 319.01369861 117.24100113 331.2296437 C131.04445594 355.97962837 132.58073728 391.29476338 125.07470703 418.22851562 C115.05583821 451.97790055 93.3289022 480.16420345 62.52905273 497.39355469 C52.85463319 502.60066585 43.02330886 506.4716771 32.4375 509.375 C31.26316406 509.71402344 30.08882812 510.05304688 28.87890625 510.40234375 C-4.16688969 518.25660193 -39.96639395 510.93029199 -68.5625 493.375 C-97.27152999 474.709749 -118.29126791 446.09015854 -125.5625 412.375 C-127.50481446 403.18886406 -127.96613959 394.18456511 -127.9375 384.8125 C-127.93662384 384.10912506 -127.93574768 383.40575012 -127.93484497 382.68106079 C-127.88775234 371.18768775 -127.03723731 360.38531221 -123.5625 349.375 C-123.31580566 348.58883301 -123.06911133 347.80266602 -122.81494141 346.99267578 C-114.50472789 321.31722789 -114.50472789 321.31722789 -107.5625 314.375 C-107.46105847 311.5877652 -107.42538517 308.82508332 -107.43119812 306.03727722 C-107.42908241 305.15215259 -107.42696669 304.26702797 -107.42478687 303.35508138 C-107.41875629 300.36455707 -107.41978923 297.3740746 -107.4206543 294.38354492 C-107.41762448 292.24838692 -107.41410353 290.11322957 -107.41012573 287.97807312 C-107.4022171 283.36453872 -107.3970842 278.75101213 -107.39383507 274.13747215 C-107.38793004 266.82700101 -107.37139017 259.51657871 -107.35249329 252.20613098 C-107.34615488 249.70284942 -107.33982926 247.19956783 -107.33351612 244.6962862 C-107.33035031 243.44205911 -107.3271845 242.18783202 -107.32392275 240.89559805 C-107.28188609 223.87140704 -107.24892623 206.84723742 -107.23657227 189.82299805 C-107.22816078 178.3497221 -107.20554802 166.87656579 -107.1672166 155.4033497 C-107.1475435 149.33623123 -107.13502178 143.26929127 -107.14005089 137.2021389 C-107.14473773 131.47701719 -107.13067394 125.75223183 -107.10303879 120.02717781 C-107.09619169 117.94087707 -107.09592931 115.85454105 -107.10323906 113.76824188 C-107.19705841 83.945741 -99.93598189 56.90880216 -79.5625 34.375 C-78.74136719 33.45976563 -77.92023438 32.54453125 -77.07421875 31.6015625 C-56.97905492 10.34534476 -28.94118926 -0.03862504 0 0 Z M-48.5625 65.375 C-64.22545997 83.85959615 -63.71317539 105.82493213 -63.68847656 128.68212891 C-63.68987348 130.82528215 -63.69177418 132.96843512 -63.69413757 135.11158752 C-63.69861352 139.70639899 -63.70049018 144.30120158 -63.70059967 148.89601517 C-63.70174539 156.16681405 -63.71462128 163.4375628 -63.73016357 170.70834351 C-63.73273643 171.93824277 -63.73530928 173.16814203 -63.7379601 174.43531096 C-63.74322583 176.94894795 -63.74851131 179.46258489 -63.75381613 181.9762218 C-63.78886899 198.888453 -63.81547344 215.80062 -63.81298828 232.71289062 C-63.81139901 244.14331715 -63.82744475 255.5735708 -63.86369491 267.00394189 C-63.88213181 273.04490863 -63.89151644 279.08558671 -63.87921906 285.12657547 C-63.86776928 290.80508827 -63.87951726 296.48308358 -63.90885353 302.16152763 C-63.91548298 304.24075193 -63.91364646 306.32002377 -63.90255547 308.39922905 C-63.8053554 328.27471866 -63.8053554 328.27471866 -69.5625 336.375 C-70.25671521 337.54160295 -70.94464672 338.71197766 -71.625 339.88671875 C-72.264375 340.93472656 -72.90375 341.98273438 -73.5625 343.0625 C-84.75552454 362.13972005 -87.16210539 384.0924808 -82.06738281 405.46289062 C-78.32676841 419.62947283 -71.20211104 431.48991709 -61.5625 442.375 C-61.00949219 443.01179688 -60.45648438 443.64859375 -59.88671875 444.3046875 C-46.79810266 458.40012021 -25.74164369 468.54112419 -6.5625 469.375 C-5.5621875 469.4265625 -4.561875 469.478125 -3.53125 469.53125 C19.92428733 470.16518344 40.91204179 461.89519419 58.4375 446.375 C59.07429687 445.82199219 59.71109375 445.26898438 60.3671875 444.69921875 C75.74377748 430.42095662 84.3218458 408.8607341 85.640625 388.19140625 C85.93005049 368.10045363 80.04400351 351.44822352 69.390625 334.6171875 C65.89021221 328.80650226 65.14556634 324.312531 65.17248535 317.56730652 C65.16591345 316.23638496 65.16591345 316.23638496 65.15920877 314.8785761 C65.14688603 311.90492069 65.14869714 308.93144166 65.15039062 305.95776367 C65.14436618 303.82537576 65.13744188 301.69299022 65.12968445 299.56060791 C65.11478835 294.96622711 65.10604425 290.37188982 65.10197449 285.7774868 C65.09525685 278.50137882 65.0734941 271.22536351 65.04943848 263.94929504 C65.00044688 248.48705178 64.96818556 233.02478877 64.9375 217.5625 C64.90438669 200.90672994 64.86827917 184.25099609 64.81336927 167.59528142 C64.79012909 160.37501761 64.77630634 153.1548176 64.76987457 145.93452013 C64.76389706 141.42137833 64.74976626 136.90828754 64.73353004 132.39517212 C64.72769913 130.31685874 64.72517234 128.23853277 64.72636986 126.16021156 C64.73616789 102.35420641 63.45824364 79.91348389 46.1875 61.625 C32.80684826 48.96762673 15.50445991 42.72910703 -2.7890625 43.06640625 C-20.7980539 44.53919126 -36.29065201 52.19006808 -48.5625 65.375 Z " fill="#000000" transform="translate(191.5625,-0.375)"/>
<path d="M0 0 C4.72282779 3.51878671 7.8166278 8.73744944 8.9765625 14.47265625 C9.06360499 16.12443501 9.09857667 17.779341 9.09681702 19.43341064 C9.09887901 20.9309639 9.09887901 20.9309639 9.10098267 22.45877075 C9.09558975 24.09227982 9.09558975 24.09227982 9.09008789 25.75878906 C9.09023392 26.91029449 9.09037994 28.06179993 9.0905304 29.24819946 C9.08983328 33.0574125 9.0820502 36.86657675 9.07421875 40.67578125 C9.07235386 43.31565321 9.07093029 45.95552552 9.06993103 48.59539795 C9.06682397 54.83556659 9.05861901 61.0757177 9.04858154 67.31587863 C9.03740099 74.42103328 9.03190506 81.52618878 9.02688611 88.63135004 C9.01643588 103.24512782 8.99884853 117.85889179 8.9765625 132.47265625 C9.75 132.75625 10.5234375 133.03984375 11.3203125 133.33203125 C14.72023672 134.79199871 16.49315051 136.74090306 18.9765625 139.47265625 C19.8221875 140.40078125 20.6678125 141.32890625 21.5390625 142.28515625 C29.68816772 152.30496801 30.97956689 163.92224238 29.9765625 176.47265625 C27.83608669 187.74402255 21.74778274 196.84504306 12.7890625 203.91015625 C1.76864462 211.30264042 -10.43850187 213.2415025 -23.41015625 210.84765625 C-35.04590479 207.76315013 -43.68891456 201.36599243 -50.36328125 191.375 C-56.49323813 180.65839303 -57.78180292 169.08667109 -55.328125 157.06640625 C-52.29568803 146.97527147 -45.90730434 138.29312073 -37.0234375 132.47265625 C-36.3634375 132.47265625 -35.7034375 132.47265625 -35.0234375 132.47265625 C-35.02620288 131.87189018 -35.02896826 131.27112411 -35.03181744 130.65215302 C-35.09816577 116.0118991 -35.14776107 101.37165408 -35.17887402 86.7312851 C-35.19432121 79.65120533 -35.21536943 72.57122614 -35.24975586 65.49121094 C-35.28293166 58.65718128 -35.3002968 51.82325613 -35.30806923 44.989151 C-35.31360747 42.38328915 -35.32442228 39.77743294 -35.34062767 37.1716156 C-35.36243982 33.51858216 -35.36540275 29.86597883 -35.36401367 26.21289062 C-35.3747995 25.13826569 -35.38558533 24.06364075 -35.396698 22.95645142 C-35.36623324 15.54068171 -34.21725264 10.18526648 -30.3984375 3.72265625 C-22.23790345 -4.00837601 -9.9314494 -5.03795342 0 0 Z " fill="#000000" transform="translate(205.0234375,215.52734375)"/>
<path d="M0 0 C0.69974442 -0.0049649 1.39948883 -0.00992981 2.12043762 -0.01504517 C4.43023675 -0.02962222 6.73996716 -0.03646203 9.04980469 -0.04199219 C10.66160075 -0.04774818 12.27339682 -0.05350586 13.88519287 -0.05926514 C17.26444822 -0.06976306 20.64367987 -0.07561334 24.02294922 -0.07910156 C28.33804584 -0.0845777 32.65282557 -0.10859183 36.96782303 -0.13707352 C40.29826755 -0.15576513 43.62863681 -0.160909 46.95912933 -0.16243744 C48.54903644 -0.1654508 50.13894265 -0.17343452 51.72879791 -0.18662262 C69.57350863 -0.32405789 69.57350863 -0.32405789 77.28417969 5.47363281 C82.16376206 10.35321518 83.40214431 14.71181316 83.40917969 21.53613281 C83.24912435 28.63423901 82.36180554 33.37044453 77.61621094 38.67675781 C72.18018752 43.7484365 65.74741418 44.40960658 58.6027832 44.43579102 C57.90260071 44.44090195 57.20241821 44.44601288 56.48101807 44.45127869 C54.18745152 44.465075 51.89418881 44.46422562 49.60058594 44.46191406 C47.99307648 44.46580626 46.38556804 44.470142 44.77806091 44.47489929 C41.41670389 44.48233992 38.05545194 44.48208578 34.6940918 44.47680664 C30.40259348 44.47101254 26.11152683 44.48795187 21.82009983 44.51115131 C18.50251279 44.52593561 15.18502863 44.52675403 11.86741447 44.52364159 C10.28588951 44.52415236 8.70435841 44.52934403 7.12286568 44.53945351 C-2.15506972 44.59149272 -9.56210691 44.391168 -17.77832031 39.53613281 C-22.55688053 34.49209703 -24.27339847 29.05281303 -24.52832031 22.16113281 C-24.29162489 16.52347831 -23.4489456 11.75221078 -20.02832031 7.16113281 C-13.59878763 1.56920898 -8.40686627 0.04541935 0 0 Z " fill="#000000" transform="translate(365.0283203125,41.8388671875)"/>
<path d="M0 0 C1.09394577 -0.01007584 1.09394577 -0.01007584 2.20999146 -0.02035522 C4.60637336 -0.03925861 7.00247409 -0.0432554 9.39892578 -0.04541016 C11.07512525 -0.05184306 12.7513236 -0.05857179 14.42752075 -0.06558228 C17.93608197 -0.07753563 21.44454487 -0.08126507 24.953125 -0.08007812 C29.43419544 -0.07987497 33.91463148 -0.10718231 38.39555168 -0.14162254 C41.85640319 -0.1639318 45.31710292 -0.16791445 48.77801895 -0.16685867 C50.42933464 -0.16920837 52.08065491 -0.17799613 53.73189926 -0.19352341 C71.21839069 -0.34257347 71.21839069 -0.34257347 78.52783203 6.10693359 C78.98287109 6.68314453 79.43791016 7.25935547 79.90673828 7.85302734 C80.37982422 8.43181641 80.85291016 9.01060547 81.34033203 9.60693359 C85.04299497 15.12889805 83.93367464 22.92774926 83.46923828 29.29052734 C82.0388638 35.00340855 78.99703716 38.1976528 74.15283203 41.38037109 C70.16600905 43.53566055 66.38690016 43.45102998 61.98779297 43.4675293 C61.22806686 43.47410049 60.46834076 43.48067169 59.68559265 43.48744202 C57.17076516 43.50715559 54.65599737 43.51883388 52.14111328 43.52880859 C51.28102913 43.53288412 50.42094498 43.53695965 49.53479767 43.54115868 C44.98153423 43.56201215 40.42830085 43.57631642 35.875 43.58569336 C31.17968057 43.59675024 26.48483603 43.6311437 21.7896843 43.67086506 C18.17276142 43.69705228 14.55595129 43.7053871 10.93894196 43.70897484 C9.20863898 43.71383615 7.47834089 43.72543718 5.7481308 43.74401283 C3.32112875 43.76844758 0.89534996 43.76743172 -1.53173828 43.76049805 C-2.24056656 43.77330811 -2.94939484 43.78611816 -3.67970276 43.79931641 C-9.69015248 43.73702517 -13.77687794 41.75452862 -18.23779297 37.76318359 C-23.8541366 30.59887245 -24.39283602 24.20222038 -23.53076172 15.29052734 C-21.85992384 9.33816739 -18.56716737 5.71528319 -13.53076172 2.29052734 C-8.9150025 0.40221286 -4.96824902 0.02885392 0 0 Z " fill="#000000" transform="translate(364.53076171875,212.70947265625)"/>
<path d="M0 0 C2.03891637 -0.00965282 4.07680062 -0.04067735 6.11547852 -0.07226562 C21.98025895 -0.13487946 21.98025895 -0.13487946 28.71508789 5.03710938 C33.59414877 11.00173148 35.90465359 16.21301418 35.61352539 24.13476562 C34.77609487 31.53435658 32.34465206 35.97995074 26.70336914 40.83007812 C19.84735323 44.98279917 12.20999115 44.58120172 4.46923828 44.5559082 C2.4458225 44.552747 0.42387067 44.57626284 -1.59936523 44.6015625 C-10.06465338 44.60577199 -16.02657063 43.95734383 -23.37475586 39.61523438 C-28.15331607 34.57119859 -29.86983401 29.13191459 -30.12475586 22.24023438 C-29.88806044 16.60257987 -29.04538114 11.83131234 -25.62475586 7.24023438 C-17.46957351 0.14747028 -10.48361064 0.0299853 0 0 Z " fill="#000000" transform="translate(370.624755859375,297.759765625)"/>
<path d="M0 0 C0.77583939 -0.00807175 1.55167877 -0.01614349 2.35102844 -0.02445984 C3.99433164 -0.03828505 5.63766336 -0.0490142 7.28100586 -0.05688477 C8.95199061 -0.06837977 10.62293935 -0.08879231 12.29370117 -0.1184082 C14.71688616 -0.16134951 17.13898042 -0.17729172 19.5625 -0.1875 C20.29925461 -0.20500809 21.03600922 -0.22251617 21.79508972 -0.24055481 C27.88283437 -0.21548638 33.01300422 1.52472469 37.64579773 5.57963562 C42.48712492 10.88495016 43.54450959 17.02954567 43.3671875 23.96875 C42.71281213 29.81785911 40.40242943 35.17487772 36.11328125 39.23828125 C28.92890332 44.02967284 21.07313117 43.82321317 12.7746582 43.70483398 C10.55148904 43.6757905 8.33070111 43.68427259 6.10742188 43.69726562 C-9.66690795 43.67604217 -9.66690795 43.67604217 -15.91015625 38.58984375 C-16.35617187 38.02007812 -16.8021875 37.4503125 -17.26171875 36.86328125 C-17.72320312 36.29867187 -18.1846875 35.7340625 -18.66015625 35.15234375 C-22.68339581 28.87403998 -22.57982968 22.48523857 -21.88671875 15.23828125 C-20.20387474 9.01075073 -16.17249808 4.78257412 -10.88671875 1.23828125 C-7.2258605 0.01799517 -3.81505941 0.03773263 0 0 Z " fill="#000000" transform="translate(362.88671875,127.76171875)"/>
</svg>
