<?xml version="1.0" encoding="UTF-8"?>
<svg version="1.1" xmlns="http://www.w3.org/2000/svg" width="128" height="128">
<path d="M0 0 C3.12473154 1.70443283 5.73331401 3.88629546 8.4375 6.1875 C10.00824489 7.46851505 11.5798834 8.74843503 13.15234375 10.02734375 C13.94882324 10.68460449 14.74530273 11.34186523 15.56591797 12.01904297 C19.46857133 15.19518433 23.48496622 18.21809875 27.5 21.25 C28.90756399 22.31597549 30.31392227 23.38354602 31.71875 24.453125 C32.30591797 24.89817383 32.89308594 25.34322266 33.49804688 25.80175781 C35 27 35 27 37 29 C37.22481765 32.02672572 37.32819549 34.95910668 37.3359375 37.98828125 C37.3459227 39.33130562 37.3459227 39.33130562 37.35610962 40.70146179 C37.36624685 42.59872378 37.37092631 44.4960215 37.37060547 46.39331055 C37.37496734 49.29080442 37.4112434 52.18676137 37.44921875 55.08398438 C37.45508902 56.92707812 37.459057 58.77017911 37.4609375 60.61328125 C37.47530853 61.47802567 37.48967957 62.34277008 37.50448608 63.23371887 C37.4733595 67.35147062 37.33865823 69.46204675 35.09619141 73.02416992 C31.82038418 76.1118834 29.96184094 76.12085179 25.5546875 76.09765625 C23.94013672 76.09282227 23.94013672 76.09282227 22.29296875 76.08789062 C21.16503906 76.07951172 20.03710938 76.07113281 18.875 76.0625 C17.17150391 76.05573242 17.17150391 76.05573242 15.43359375 76.04882812 C12.62234362 76.03701615 9.8111977 76.02054507 7 76 C6.9906543 75.17274414 6.98130859 74.34548828 6.97167969 73.49316406 C6.91799681 69.74483585 6.8343429 65.99775838 6.75 62.25 C6.73582031 60.94804688 6.72164062 59.64609375 6.70703125 58.3046875 C6.67480469 57.05429688 6.64257812 55.80390625 6.609375 54.515625 C6.58842773 53.36352539 6.56748047 52.21142578 6.54589844 51.02441406 C5.89039181 47.39274316 4.92715297 46.18919312 2 44 C-1.39621895 43.40423947 -1.39621895 43.40423947 -5.0625 43.5625 C-6.29097656 43.56378906 -7.51945312 43.56507812 -8.78515625 43.56640625 C-11.94053557 43.73649497 -11.94053557 43.73649497 -13.87109375 45.33984375 C-16.18302964 48.73974947 -16.18028415 51.99403595 -16.31640625 55.98046875 C-16.35830078 57.14384766 -16.40019531 58.30722656 -16.44335938 59.50585938 C-16.48267578 60.72080078 -16.52199219 61.93574219 -16.5625 63.1875 C-16.60568359 64.41404297 -16.64886719 65.64058594 -16.69335938 66.90429688 C-16.7995309 69.93608381 -16.90157952 72.96795315 -17 76 C-20.5622231 76.11654436 -24.12395342 76.1873639 -27.6875 76.25 C-28.69490234 76.28351563 -29.70230469 76.31703125 -30.74023438 76.3515625 C-38.18592669 76.44985547 -38.18592669 76.44985547 -42.08203125 74.296875 C-46.10572034 69.47828195 -46.328589 64.67963191 -46.37109375 58.59375 C-46.38463646 57.39026917 -46.38463646 57.39026917 -46.39845276 56.16247559 C-46.41291587 54.4714733 -46.42183218 52.78041555 -46.42553711 51.08935547 C-46.43746382 48.50783211 -46.4867084 45.9286779 -46.53710938 43.34765625 C-46.54657135 41.70053244 -46.55380746 40.05339403 -46.55859375 38.40625 C-46.57812607 37.63841187 -46.59765839 36.87057373 -46.61778259 36.07946777 C-46.58487081 32.15753907 -46.22487143 30.2798319 -43.74047852 27.18823242 C-42.83612061 26.46611572 -41.9317627 25.74399902 -41 25 C-39.91235352 24.11598511 -39.91235352 24.11598511 -38.80273438 23.21411133 C-38.07376953 22.6755249 -37.34480469 22.13693848 -36.59375 21.58203125 C-35.77358398 20.97174072 -34.95341797 20.3614502 -34.10839844 19.73266602 C-33.24762695 19.09901123 -32.38685547 18.46535645 -31.5 17.8125 C-24.18464639 12.43953214 -24.18464639 12.43953214 -17.078125 6.796875 C-16.50642578 6.32918701 -15.93472656 5.86149902 -15.34570312 5.37963867 C-13.85991641 4.15322813 -12.39019933 2.90742071 -10.921875 1.66015625 C-7.16948096 -0.47188582 -4.15066532 -1.03308662 0 0 Z " fill="#010101" transform="translate(68,41)"/>
<path d="M0 0 C3.61632587 1.98808419 6.77612053 4.43476258 10 7 C11.30517578 8.00160156 11.30517578 8.00160156 12.63671875 9.0234375 C14.77164043 10.66568495 16.89132936 12.32426898 19 14 C19.43175537 13.34950684 19.86351074 12.69901367 20.30834961 12.02880859 C22 10 22 10 25.06640625 9.5390625 C26.22011719 9.56742188 27.37382813 9.59578125 28.5625 9.625 C29.71878906 9.63789062 30.87507813 9.65078125 32.06640625 9.6640625 C35 10 35 10 37 12 C36.958208 13.76989139 36.91009221 15.54001106 36.82006836 17.30810547 C36.5963196 23.95223023 36.5963196 23.95223023 39.38037109 29.79638672 C43.20015591 33.42156037 47.56384273 36.19312231 52 39 C52.66 39.66 53.32 40.32 54 41 C53.625 43.625 53.625 43.625 53 46 C48.76039029 46.35834242 46.89465447 45.61689436 43.5859375 42.9921875 C42.75175293 42.34185547 41.91756836 41.69152344 41.05810547 41.02148438 C40.17268066 40.31314453 39.28725586 39.60480469 38.375 38.875 C36.49065705 37.40227099 34.60521676 35.93094507 32.71875 34.4609375 C31.76613281 33.71424805 30.81351562 32.96755859 29.83203125 32.19824219 C23.33732235 27.15700435 16.66829965 22.34850066 10.02978516 17.49951172 C8.17212652 16.12715914 6.33784546 14.73030265 4.51171875 13.31640625 C3.53847656 12.57261719 2.56523438 11.82882813 1.5625 11.0625 C0.75941406 10.43472656 -0.04367188 9.80695312 -0.87109375 9.16015625 C-2.87386589 7.80001403 -2.87386589 7.80001403 -4.86328125 8.23339844 C-7.43277132 9.15526759 -9.16379269 10.42525974 -11.31640625 12.10546875 C-12.15397461 12.75265869 -12.99154297 13.39984863 -13.85449219 14.06665039 C-14.74813477 14.76653076 -15.64177734 15.46641113 -16.5625 16.1875 C-18.45339746 17.6497699 -20.34534749 19.11067959 -22.23828125 20.5703125 C-23.19686035 21.31055664 -24.15543945 22.05080078 -25.14306641 22.81347656 C-30.21102812 26.69218662 -35.36294371 30.45556119 -40.51782227 34.2175293 C-41.23897217 34.74515869 -41.96012207 35.27278809 -42.703125 35.81640625 C-43.75790039 36.58428467 -43.75790039 36.58428467 -44.83398438 37.36767578 C-46.37355241 38.5279048 -47.88270634 39.72897863 -49.36914062 40.95654297 C-50.14966797 41.59865723 -50.93019531 42.24077148 -51.734375 42.90234375 C-52.43272461 43.49394287 -53.13107422 44.08554199 -53.85058594 44.69506836 C-56.44367171 46.26935771 -58.0160936 46.33284962 -61 46 C-62 45 -62 45 -62.30786133 42.65600586 C-62 40 -62 40 -60.3737793 38.18579102 C-59.23549683 37.35325806 -59.23549683 37.35325806 -58.07421875 36.50390625 C-56.79913452 35.55281982 -56.79913452 35.55281982 -55.49829102 34.58251953 C-54.57072998 33.91591309 -53.64316895 33.24930664 -52.6875 32.5625 C-51.7399585 31.86237793 -50.79241699 31.16225586 -49.81616211 30.44091797 C-47.84900118 28.98998329 -45.87666819 27.54603657 -43.89941406 26.10888672 C-41.20961865 24.15246597 -38.5353665 22.1771612 -35.8671875 20.19140625 C-32.72014002 17.85055661 -29.56174403 15.5268769 -26.390625 13.21875 C-23.55593047 11.15400307 -20.75743985 9.0529609 -17.984375 6.90625 C-17.36038818 6.43364746 -16.73640137 5.96104492 -16.09350586 5.47412109 C-14.44562455 4.22584253 -12.81012324 2.96126607 -11.17578125 1.6953125 C-7.26067323 -0.39467136 -4.27237372 -1.13732943 0 0 Z " fill="#010101" transform="translate(68,23)"/>
</svg>
