<svg xmlns="http://www.w3.org/2000/svg" viewBox="0 0 64 64">
  <defs>
    <linearGradient id="cloudGrad" x1="0" y1="0" x2="0" y2="1">
      <stop offset="0%" stop-color="#B9C6D3"/>
      <stop offset="100%" stop-color="#8FA1B2"/>
    </linearGradient>
    <filter id="softShadow" x="-20%" y="-20%" width="140%" height="140%">
      <feDropShadow dx="0" dy="2" stdDeviation="2" flood-color="#00000033"/>
    </filter>
  </defs>
  <g filter="url(#softShadow)">
    <path fill="url(#cloudGrad)" d="M48 30c0-7.18-5.82-13-13-13-5.73 0-10.62 3.84-12.25 9.16C19.58 26.53 16 30.63 16 35.5 16 42.4 21.6 48 28.5 48h21c6.35 0 11.5-5.15 11.5-11.5S55.35 25 49 25c-.34 0-.67.02-1 .05C47.85 27.04 48 28.49 48 30z"/>
    <path fill="url(#cloudGrad)" d="M23 36c0-4.97 4.03-9 9-9 3.63 0 6.78 2.12 8.23 5.2.57-.13 1.17-.2 1.77-.2 4.42 0 8 3.58 8 8s-3.58 8-8 8H30c-3.86 0-7-3.14-7-7z" opacity="0.9"/>
  </g>
</svg>
