<?xml version="1.0" encoding="UTF-8"?>
<svg version="1.1" xmlns="http://www.w3.org/2000/svg" width="512" height="512">
<path d="M0 0 C0.71542969 -0.03738281 1.43085938 -0.07476563 2.16796875 -0.11328125 C11.6542051 1.41404484 17.48863184 8.53996597 23.8125 15.125 C25.24274161 16.59826553 26.67598269 18.06847956 28.11206055 19.53605652 C29.41749537 20.87256287 30.71488812 22.21691085 32.01171875 23.56176758 C34.11225173 25.62476488 36.21220435 27.53973374 38.44335938 29.44995117 C43.35484793 33.70541527 47.91506455 38.30194353 52.48841858 42.91325378 C54.06823133 44.50603491 55.65132586 46.09549157 57.23522949 47.6842041 C61.16542659 51.62764616 65.09010772 55.57656286 69.01495361 59.52532959 C72.34365714 62.87389027 75.67448931 66.22030693 79.0080719 69.56401062 C80.55431555 71.11665238 82.0974738 72.67231403 83.64050293 74.22814941 C88.20692939 78.81808313 92.82870348 83.25830186 97.74597168 87.4708252 C101.76299369 91.0507656 105.51583186 94.90853458 109.30322266 98.72805786 C110.8494274 100.28723727 112.39891896 101.84308621 113.94921875 103.39819336 C117.79594225 107.25815803 121.63714716 111.12359902 125.47851562 114.9888916 C128.73675696 118.26699442 131.9971299 121.54294992 135.26025391 124.81619263 C136.77326052 126.33559466 138.2831797 127.85801703 139.79296875 129.38061523 C144.35114583 133.96286745 148.96637726 138.4021643 153.87484741 142.60861206 C157.5918013 145.87714066 161.07341292 149.38994339 164.58203125 152.87890625 C165.38485031 153.67602524 166.18766937 154.47314423 167.01481628 155.29441833 C168.69770205 156.96792042 170.37918726 158.64283199 172.05932617 160.3190918 C174.6281788 162.8781667 177.20750591 165.42637781 179.78710938 167.97460938 C181.4277403 169.60871568 183.06773662 171.24345941 184.70703125 172.87890625 C185.47578079 173.63530899 186.24453033 174.39171173 187.03657532 175.17103577 C191.41203666 179.56486961 195.22141129 183.51098832 196.2109375 189.875 C196.14292246 196.94856373 194.91406181 201.49587332 189.75 206.5625 C186.14195289 209.49308679 182.8269565 210.19445058 178.3046875 210.90234375 C172.89909522 211.79197884 168.49760606 213.12102545 164.875 217.375 C162.50107178 220.75604929 161.69460614 222.41834685 161.49609375 226.4453125 C161.45419922 227.25097656 161.41230469 228.05664062 161.36914062 228.88671875 C161.32982422 229.72847656 161.29050781 230.57023438 161.25 231.4375 C161.20681641 232.28699219 161.16363281 233.13648438 161.11914062 234.01171875 C161.01295764 236.11178223 160.91221503 238.21211948 160.8125 240.3125 C162.03945587 240.30361755 163.26641174 240.29473511 164.5305481 240.2855835 C176.09551747 240.20448382 187.66042911 240.14452779 199.22561836 240.10525131 C205.17136617 240.08438001 211.11688435 240.05607012 217.0625 240.01074219 C222.80076224 239.96726903 228.53880365 239.94335946 234.27721786 239.93299103 C236.46608837 239.92560237 238.65494684 239.91117408 240.8437233 239.88957977 C243.91056654 239.8605269 246.97649823 239.85654488 250.04345703 239.85839844 C250.94760849 239.84401733 251.85175995 239.82963623 252.78330994 239.81481934 C258.28150674 239.8507572 261.48177334 240.5937507 265.8125 244.3125 C268.29859171 248.04163757 268.11514538 250.95008724 268.11889648 255.26879883 C268.12722 256.07889908 268.13554352 256.88899933 268.14411926 257.72364807 C268.16824296 260.40565784 268.17699474 263.08742444 268.18359375 265.76953125 C268.19255914 267.63417128 268.20168096 269.49881056 268.21095276 271.3634491 C268.22745234 275.27495065 268.23514448 279.18636652 268.23803711 283.09790039 C268.24341823 288.10508826 268.28108279 293.11146834 268.32678127 298.11842823 C268.35655688 301.9712364 268.36376079 305.82385031 268.36476326 309.67676353 C268.3689655 311.52233259 268.3814 313.36790222 268.40228081 315.21335793 C268.42920281 317.79884411 268.42436788 320.38246178 268.41186523 322.96801758 C268.42669952 323.72719482 268.44153381 324.48637207 268.45681763 325.26855469 C268.40314343 329.17553259 267.85977191 331.74286944 265.46253967 334.77153015 C262.19669742 337.9029575 260.04538559 338.43827045 255.6933136 338.43275452 C254.43762573 338.43481651 254.43762573 338.43481651 253.15657043 338.43692017 C251.78416451 338.43152725 251.78416451 338.43152725 250.3840332 338.42602539 C249.41799164 338.42617142 248.45195007 338.42631744 247.45663452 338.4264679 C244.25882737 338.42577041 241.06107824 338.41798562 237.86328125 338.41015625 C235.6479648 338.40829149 233.43264794 338.40686786 231.21733093 338.40586853 C225.38283146 338.40204793 219.54835683 338.39222151 213.71386719 338.38116455 C207.76172217 338.37094063 201.80957314 338.3663688 195.85742188 338.36132812 C184.17577033 338.35059886 172.49413723 338.33352789 160.8125 338.3125 C160.82249275 339.78589088 160.82249275 339.78589088 160.83268738 341.28904724 C160.89365524 350.57209497 160.93854767 359.85510176 160.96793652 369.13830471 C160.98355384 373.91024089 161.00471987 378.68201468 161.03881836 383.45385742 C161.07155259 388.06393581 161.08938256 392.67385857 161.09713173 397.28404427 C161.10265008 399.0378063 161.11342582 400.79156037 161.12969017 402.54525566 C161.31184287 423.01041255 161.31184287 423.01041255 156.05859375 429.46875 C155.46175781 429.9121875 154.86492187 430.355625 154.25 430.8125 C153.65058594 431.2765625 153.05117188 431.740625 152.43359375 432.21875 C149.43052306 434.24491818 147.55603313 434.43953693 143.96042252 434.44672108 C142.92905552 434.45117892 141.89768853 434.45563676 140.83506799 434.46022969 C139.69326569 434.46004533 138.5514634 434.45986097 137.37506104 434.45967102 C135.5657506 434.46518605 135.5657506 434.46518605 133.71988845 434.4708125 C130.36111129 434.47995153 127.00238304 434.48455169 123.64359808 434.48720181 C120.02520835 434.49110043 116.40683283 434.50067908 112.78845215 434.50941467 C104.04465404 434.52919181 95.30085475 434.53924696 86.55703986 434.54814246 C82.44152667 434.5525234 78.32601478 434.55789072 74.21050262 434.56313133 C60.5331003 434.58014501 46.85569879 434.59463972 33.17828751 434.60188007 C29.62764739 434.60379003 26.07700728 434.60571036 22.52636719 434.60766602 C21.64385008 434.60814976 20.76133297 434.6086335 19.85207292 434.6091319 C5.55225691 434.61743419 -8.74747551 434.64277384 -23.04725501 434.67524669 C-37.72169002 434.70829921 -52.39608253 434.7263272 -67.07055497 434.72952431 C-75.31250836 434.73169111 -83.55433986 434.74046447 -91.79625702 434.76598549 C-98.81480406 434.78766786 -105.8331996 434.79575512 -112.85177633 434.78601871 C-116.43332326 434.78146676 -120.01455745 434.78341162 -123.59606171 434.80278015 C-127.47821393 434.82359339 -131.35993284 434.81344968 -135.24212646 434.80024719 C-136.94144558 434.81670106 -136.94144558 434.81670106 -138.67509437 434.83348733 C-145.98191892 434.7733038 -149.5486001 433.84767829 -154.83203125 428.71484375 C-158.92594361 423.58033828 -159.33361294 419.89257795 -159.31880188 413.52668762 C-159.32091759 412.72530906 -159.32303331 411.9239305 -159.32521313 411.09826773 C-159.33122086 408.40379574 -159.33021242 405.70937047 -159.3293457 403.01489258 C-159.33237673 401.08656739 -159.33589803 399.15824291 -159.33987427 397.22991943 C-159.34776869 393.07202385 -159.35291026 388.91413687 -159.35616493 384.75623512 C-159.3620712 378.17980443 -159.37860845 371.60342797 -159.39750671 365.02702332 C-159.40384431 362.77607826 -159.41016993 360.52513317 -159.41648388 358.27418804 C-159.41964969 357.1468023 -159.4228155 356.01941655 -159.42607725 354.8578676 C-159.46816054 339.54482178 -159.50112503 324.23180095 -159.51342773 308.91870117 C-159.52180857 298.59329683 -159.54430124 288.26802645 -159.5827834 277.94268912 C-159.60254516 272.47848582 -159.61494823 267.01448279 -159.60994911 261.55024147 C-159.6053019 256.40786425 -159.61911239 251.26586643 -159.64696121 246.12356567 C-159.65387201 244.23863152 -159.65400076 242.35365813 -159.64676094 240.4687252 C-159.63785779 237.88977761 -159.65358939 235.3120772 -159.67524719 232.73323059 C-159.66258339 231.62147901 -159.66258339 231.62147901 -159.64966375 230.48726779 C-159.73343428 225.07080552 -161.16698538 220.83371518 -164.1875 216.3125 C-168.45372983 212.61550027 -172.17083763 211.68792281 -177.6875 210.875 C-185.16729474 209.58753897 -188.53431406 207.93852079 -193.0625 201.75 C-194.98078518 195.88857305 -195.51508957 189.82362506 -193.296875 183.95703125 C-190.56103539 179.43300731 -186.8863403 176.0496339 -182.96875 172.55078125 C-176.34481444 166.53219272 -170.01536725 160.22442481 -163.69921875 153.88671875 C-163.18399469 153.36999226 -162.66877064 152.85326576 -162.13793373 152.32088089 C-158.38008321 148.55077021 -154.62706193 144.77587032 -150.875 141 C-147.10093226 137.20212641 -143.32511411 133.40602438 -139.54505348 129.61411476 C-138.05418605 128.11686777 -136.56640962 126.6165987 -135.07878113 125.11613464 C-131.21575905 121.23921886 -127.36981361 117.39898411 -123.2121582 113.8371582 C-118.40134898 109.71189661 -113.97110598 105.20828228 -109.51158142 100.71174622 C-107.93176867 99.11896509 -106.34867414 97.52950843 -104.76477051 95.9407959 C-101.40283139 92.56752687 -98.04486181 89.19032398 -94.6875 85.8125 C-90.79152651 81.89278165 -86.89386462 77.97477258 -82.9919281 74.06098938 C-81.44568445 72.50834762 -79.9025262 70.95268597 -78.35949707 69.39685059 C-74.40279956 65.41980682 -70.45599992 61.46939206 -66.19189453 57.8190918 C-61.35850939 53.67844013 -56.92175993 49.14274637 -52.4504509 44.62005043 C-50.8631641 43.01511567 -49.27213945 41.41397046 -47.68008423 39.81376648 C-43.15996006 35.26940327 -38.64567795 30.71926889 -34.13574219 26.16479492 C-31.36217826 23.36436149 -28.58368988 20.5688915 -25.80217361 17.77635765 C-24.7501689 16.71817785 -23.70006092 15.65810864 -22.65195847 14.59606361 C-21.18582308 13.1105785 -19.71350552 11.6314807 -18.23974609 10.15356445 C-17.40671967 9.3130806 -16.57369324 8.47259674 -15.71542358 7.60664368 C-10.94521669 3.27758086 -6.53578791 0.21978756 0 0 Z " fill="#FE6565" transform="translate(219.1875,31.6875)"/>
<path d="M0 0 C2.9375 2.5 2.9375 2.5 5 5 C5.495 5.495 5.495 5.495 6 6 C6.12345942 9.09183663 6.18621409 12.16472615 6.2109375 15.2578125 C6.2390236 17.18229992 6.26768816 19.10677896 6.296875 21.03125 C6.33802711 24.0725872 6.37490229 27.11377106 6.40136719 30.15527344 C6.42909313 33.08561839 6.47498569 36.01524649 6.5234375 38.9453125 C6.52669037 39.84661896 6.52994324 40.74792542 6.53329468 41.67654419 C6.66118892 48.29369127 7.26623564 53.35208109 12.24105835 58.17068481 C17.47778912 61.4528064 24.04176989 60.48418523 29.98828125 60.390625 C31.41782804 60.38294219 32.84738566 60.37708986 34.27694702 60.3729248 C37.34803357 60.36030814 40.41867697 60.33527731 43.48959351 60.30065918 C48.34760185 60.24645568 53.20546433 60.22296974 58.0637207 60.20410156 C68.37600995 60.15974704 78.6879484 60.08161043 89 60 C100.13351524 59.91188844 111.26688538 59.82956806 122.40067959 59.78632736 C127.22806204 59.76642202 132.05477037 59.72702296 136.88188171 59.67260742 C139.8867434 59.64272493 142.89151305 59.62949791 145.89650345 59.6207428 C147.28729411 59.61326827 148.67806788 59.59889091 150.06870651 59.57701111 C163.18979316 59.37710895 163.18979316 59.37710895 168 64 C170.48609171 67.72913757 170.30264538 70.63758724 170.30639648 74.95629883 C170.31472 75.76639908 170.32304352 76.57649933 170.33161926 77.41114807 C170.35574296 80.09315784 170.36449474 82.77492444 170.37109375 85.45703125 C170.38005914 87.32167128 170.38918096 89.18631056 170.39845276 91.0509491 C170.41495234 94.96245065 170.42264448 98.87386652 170.42553711 102.78540039 C170.43091823 107.79258826 170.46858279 112.79896834 170.51428127 117.80592823 C170.54405688 121.6587364 170.55126079 125.51135031 170.55226326 129.36426353 C170.5564655 131.20983259 170.5689 133.05540222 170.58978081 134.90085793 C170.61670281 137.48634411 170.61186788 140.06996178 170.59936523 142.65551758 C170.62161667 143.79428345 170.62161667 143.79428345 170.64431763 144.95605469 C170.59064343 148.86303259 170.04727191 151.43036944 167.65003967 154.45903015 C163.84395571 158.10846404 161.16774591 158.12595995 156.0921936 158.13803101 C154.85841476 158.14348434 153.62463593 158.14893768 152.35346985 158.15455627 C150.98385625 158.15567604 149.6142426 158.15672656 148.24462891 158.15771484 C146.80403997 158.16238344 145.3634525 158.16752708 143.92286682 158.17311096 C140.81919112 158.18439023 137.71552501 158.1928252 134.61183548 158.19923019 C129.70386426 158.20990937 124.79596198 158.23015365 119.88803101 158.25234985 C105.93124547 158.31427802 91.97446407 158.36829755 78.01757812 158.40136719 C70.31041055 158.41970885 62.60335852 158.44863786 54.89627588 158.4893719 C50.81773953 158.51044733 46.73934883 158.52589994 42.66075516 158.52817917 C38.82426166 158.53032566 34.98807155 158.54619488 31.15167046 158.57256889 C29.74441005 158.57976297 28.33711288 158.58186231 26.92983818 158.57846642 C25.00712876 158.57456814 23.08441005 158.59079382 21.16177368 158.60800171 C19.54848899 158.61296693 19.54848899 158.61296693 17.90261269 158.61803246 C14.57952583 159.05533204 12.69600576 160.04208253 10 162 C8.0764825 164.83049323 7.75016094 167.09263436 7.74462891 170.47387695 C7.73766998 171.35191483 7.73071106 172.2299527 7.72354126 173.13459778 C7.72503677 174.5471711 7.72503677 174.5471711 7.7265625 175.98828125 C7.70627 177.99414617 7.68541915 180.0000055 7.6640625 182.00585938 C7.64148819 185.15914628 7.62500053 188.31221223 7.61914062 191.46557617 C7.60959036 194.51521487 7.57577922 197.56386519 7.5390625 200.61328125 C7.54410797 201.5489241 7.54915344 202.48456696 7.55435181 203.44856262 C7.46429982 209.47428473 6.55790557 213.08418602 3 218 C-1.42219535 220.94813023 -4.83553156 221.01844857 -10 220 C-20.73999653 213.41518309 -29.61487308 202.6205806 -38.41796875 193.7421875 C-40.08650499 192.06736716 -41.75556658 190.39307005 -43.42512512 188.7192688 C-47.79428762 184.33688508 -52.15782791 179.94895068 -56.51971436 175.55932617 C-63.50863055 168.52707802 -70.50441233 161.50167637 -77.50347328 154.47952652 C-79.93421205 152.03863736 -82.36146973 149.59432677 -84.78837585 147.14962769 C-86.28873061 145.64244004 -87.78919776 144.13536427 -89.28979492 142.62841797 C-89.95440735 141.95706818 -90.61901978 141.28571838 -91.30377197 140.59402466 C-95.15053115 136.73807768 -99.10977736 133.07585219 -103.24144459 129.52627754 C-105.69127089 127.40003526 -108.01003653 125.15910252 -110.3125 122.875 C-111.13363281 122.06804687 -111.95476562 121.26109375 -112.80078125 120.4296875 C-115.97342327 116.92456612 -117.83615552 114.28734951 -118.4375 109.5625 C-117.51105004 102.01855033 -111.4385967 97.1594765 -106.25 92.0625 C-105.57195312 91.38509766 -104.89390625 90.70769531 -104.1953125 90.00976562 C-101.02599089 86.86755799 -97.82711481 83.81884424 -94.421875 80.93359375 C-87.5793067 75.02555064 -81.35566948 68.42024087 -75 62 C-72.35717585 59.33032568 -69.71088176 56.66415992 -67.0625 54 C-66.47267334 53.401875 -65.88284668 52.80375 -65.27514648 52.1875 C-62.29400738 49.18921108 -59.25726325 46.31846295 -56.0546875 43.55688477 C-51.8540658 39.92567085 -47.95415767 36.04720526 -44.0625 32.08984375 C-42.57565675 30.59036001 -41.08867334 29.09101523 -39.6015625 27.59179688 C-37.29587113 25.26129992 -34.99183278 22.9292145 -32.69042969 20.59448242 C-30.4439448 18.31760729 -28.19112367 16.04715022 -25.9375 13.77734375 C-25.26017822 13.08656235 -24.58285645 12.39578094 -23.88500977 11.68406677 C-9.53508129 -2.73996589 -9.53508129 -2.73996589 0 0 Z " fill="#77D7BE" transform="translate(317,212)"/>
<path d="M0 0 C8.44045178 1.20577883 12.09075664 3.80796902 17.8984375 9.73828125 C18.79046875 10.64126953 19.6825 11.54425781 20.6015625 12.47460938 C21.51679688 13.41111328 22.43203125 14.34761719 23.375 15.3125 C25.19283525 17.16519431 27.0131085 19.01549998 28.8359375 20.86328125 C29.63563965 21.68094971 30.4353418 22.49861816 31.25927734 23.34106445 C33.33788416 25.35764265 35.42571581 27.24375493 37.62158203 29.1237793 C42.53405888 33.38590519 47.09891546 37.98576415 51.67591858 42.60075378 C53.25573133 44.19353491 54.83882586 45.78299157 56.42272949 47.3717041 C60.35292659 51.31514616 64.27760772 55.26406286 68.20245361 59.21282959 C71.53115714 62.56139027 74.86198931 65.90780693 78.1955719 69.25151062 C79.74181555 70.80415238 81.2849738 72.35981403 82.82800293 73.91564941 C87.39442939 78.50558313 92.01620348 82.94580186 96.93347168 87.1583252 C100.95049369 90.7382656 104.70333186 94.59603458 108.49072266 98.41555786 C110.0369274 99.97473727 111.58641896 101.53058621 113.13671875 103.08569336 C116.98344225 106.94565803 120.82464716 110.81109902 124.66601562 114.6763916 C127.92425696 117.95449442 131.1846299 121.23044992 134.44775391 124.50369263 C135.96076052 126.02309466 137.4706797 127.54551703 138.98046875 129.06811523 C143.53864583 133.65036745 148.15387726 138.0896643 153.06234741 142.29611206 C156.7793013 145.56464066 160.26091292 149.07744339 163.76953125 152.56640625 C164.57235031 153.36352524 165.37516937 154.16064423 166.20231628 154.98191833 C167.88520205 156.65542042 169.56668726 158.33033199 171.24682617 160.0065918 C173.8156788 162.5656667 176.39500591 165.11387781 178.97460938 167.66210938 C180.6152403 169.29621568 182.25523662 170.93095941 183.89453125 172.56640625 C184.66328079 173.32280899 185.43203033 174.07921173 186.22407532 174.85853577 C190.59953666 179.25236961 194.40891129 183.19848832 195.3984375 189.5625 C195.33042246 196.63606373 194.10156181 201.18337332 188.9375 206.25 C185.32945289 209.18058679 182.0144565 209.88195058 177.4921875 210.58984375 C172.08659522 211.47947884 167.68510606 212.80852545 164.0625 217.0625 C161.68990587 220.44164921 160.88407634 222.07398238 160.71875 226.09765625 C160.68136719 226.89880859 160.64398438 227.69996094 160.60546875 228.52539062 C160.53499415 230.22069639 160.46468239 231.91600894 160.39453125 233.61132812 C160.10065115 239.89934885 160.10065115 239.89934885 159 241 C157.58968587 241.11365423 156.17381155 241.1595243 154.7590332 241.17700195 C153.85752029 241.18983719 152.95600739 241.20267242 152.0271759 241.21589661 C151.04496567 241.22328354 150.06275543 241.23067047 149.05078125 241.23828125 C148.04540817 241.246353 147.0400351 241.25442474 146.00419617 241.26274109 C143.86975845 241.27660315 141.73529837 241.28731576 139.60083008 241.29516602 C136.34348066 241.31233669 133.08715699 241.35619923 129.83007812 241.40039062 C127.75781998 241.41052081 125.68555318 241.41903589 123.61328125 241.42578125 C122.64119217 241.44328934 121.66910309 241.46079742 120.66755676 241.47883606 C114.771391 241.46003073 111.51905518 240.8705809 107 237 C103.55228978 233.19563011 102.8771743 229.71061739 102.87402344 224.67797852 C102.87021667 223.83352676 102.86640991 222.98907501 102.86248779 222.11903381 C102.86146057 221.21479172 102.86043335 220.31054962 102.859375 219.37890625 C102.84105321 217.45506623 102.82148348 215.53123776 102.80078125 213.60742188 C102.77177889 210.58109926 102.74999888 207.55552354 102.74951172 204.52905273 C102.74617811 201.60333334 102.71164396 198.67932799 102.671875 195.75390625 C102.6789447 194.85168839 102.6860144 193.94947052 102.69329834 193.01991272 C102.60569778 188.49668756 102.47408344 186.59997217 99.5847168 182.94335938 C97.21201706 181.15940831 95.96008656 180.26340442 93.0625 179.9375 C92.43472656 179.84339844 91.80695313 179.74929687 91.16015625 179.65234375 C78.46478502 181.69554093 63.48109919 202.43413286 54.75 211.25 C51.95613506 214.07071673 49.15878138 216.88790894 46.359375 219.703125 C45.738349 220.33244934 45.117323 220.96177368 44.47747803 221.61016846 C40.7773813 225.33059061 36.9461034 228.81931507 32.97610474 232.24874878 C29.74470423 235.1124604 26.7227952 238.17358668 23.69140625 241.24609375 C22.71312111 242.23005882 22.71312111 242.23005882 21.71507263 243.23390198 C19.66173293 245.29932169 17.61171986 247.36799323 15.5625 249.4375 C12.83746809 252.18902834 10.10919782 254.93728562 7.37890625 257.68359375 C6.75295059 258.31784775 6.12699493 258.95210175 5.48207092 259.60557556 C4.00682845 261.08929696 2.506079 262.54758974 1 264 C0.67 264 0.34 264 0 264 C0 176.88 0 89.76 0 0 Z " fill="#F87877" transform="translate(220,32)"/>
<path d="M0 0 C2.9375 2.5 2.9375 2.5 5 5 C5.495 5.495 5.495 5.495 6 6 C6.12345942 9.09183663 6.18621409 12.16472615 6.2109375 15.2578125 C6.2390236 17.18229992 6.26768816 19.10677896 6.296875 21.03125 C6.33802711 24.0725872 6.37490229 27.11377106 6.40136719 30.15527344 C6.42909313 33.08561839 6.47498569 36.01524649 6.5234375 38.9453125 C6.52669037 39.84661896 6.52994324 40.74792542 6.53329468 41.67654419 C6.66118892 48.29369127 7.26623564 53.35208109 12.24105835 58.17068481 C17.47778912 61.4528064 24.04176989 60.48418523 29.98828125 60.390625 C31.41782804 60.38294219 32.84738566 60.37708986 34.27694702 60.3729248 C37.34803357 60.36030814 40.41867697 60.33527731 43.48959351 60.30065918 C48.34760185 60.24645568 53.20546433 60.22296974 58.0637207 60.20410156 C68.37600995 60.15974704 78.6879484 60.08161043 89 60 C100.13351524 59.91188844 111.26688538 59.82956806 122.40067959 59.78632736 C127.22806204 59.76642202 132.05477037 59.72702296 136.88188171 59.67260742 C139.8867434 59.64272493 142.89151305 59.62949791 145.89650345 59.6207428 C147.28729411 59.61326827 148.67806788 59.59889091 150.06870651 59.57701111 C163.18979316 59.37710895 163.18979316 59.37710895 168 64 C170.06037303 67.09055955 170.24799242 67.70926162 170.22705078 71.19604492 C170.22689972 72.03668991 170.22674866 72.8773349 170.22659302 73.74345398 C170.21627045 74.64666885 170.20594788 75.54988373 170.1953125 76.48046875 C170.19106766 77.87245232 170.19106766 77.87245232 170.18673706 79.29255676 C170.17553836 82.25766879 170.15043435 85.22247921 170.125 88.1875 C170.1149698 90.19726126 170.10584402 92.20702726 170.09765625 94.21679688 C170.07560004 99.14464753 170.04107229 104.07227262 170 109 C169.39559212 109.00097681 168.79118424 109.00195362 168.16846097 109.00296003 C132.37826082 109.06118123 96.58812574 109.1349393 60.79800136 109.22898628 C56.50449469 109.24025499 52.21098769 109.25139335 47.91748047 109.26245117 C47.06268926 109.26465486 46.20789806 109.26685854 45.32720409 109.269129 C31.47079852 109.3045402 17.614393 109.32938272 3.7579589 109.35034702 C-10.45086301 109.37207869 -24.65962601 109.40510388 -38.86839783 109.44870156 C-47.64209802 109.47526384 -56.41572473 109.49292544 -65.18946315 109.49934604 C-71.19887534 109.50458599 -77.20819491 109.52075571 -83.21755753 109.54566566 C-86.68915732 109.55972878 -90.16059115 109.5688337 -93.63222122 109.56500816 C-97.38895291 109.56337072 -101.14516425 109.5799236 -104.90182495 109.60127258 C-106.00881048 109.59642501 -107.11579601 109.59157743 -108.25632656 109.58658296 C-109.25655979 109.5960395 -110.25679302 109.60549604 -111.28733635 109.61523914 C-112.15537702 109.61713775 -113.0234177 109.61903635 -113.91776264 109.62099248 C-114.94847013 109.8086012 -114.94847013 109.8086012 -116 110 C-116.66 110.99 -117.32 111.98 -118 113 C-118.45283086 107.33961431 -117.47697367 104.32070601 -114 100 C-111.5060213 97.26106417 -108.89210938 94.65795503 -106.25 92.0625 C-105.57195312 91.38509766 -104.89390625 90.70769531 -104.1953125 90.00976562 C-101.02599089 86.86755799 -97.82711481 83.81884424 -94.421875 80.93359375 C-87.5793067 75.02555064 -81.35566948 68.42024087 -75 62 C-72.35717585 59.33032568 -69.71088176 56.66415992 -67.0625 54 C-66.47267334 53.401875 -65.88284668 52.80375 -65.27514648 52.1875 C-62.29400738 49.18921108 -59.25726325 46.31846295 -56.0546875 43.55688477 C-51.8540658 39.92567085 -47.95415767 36.04720526 -44.0625 32.08984375 C-42.57565675 30.59036001 -41.08867334 29.09101523 -39.6015625 27.59179688 C-37.29587113 25.26129992 -34.99183278 22.9292145 -32.69042969 20.59448242 C-30.4439448 18.31760729 -28.19112367 16.04715022 -25.9375 13.77734375 C-25.26017822 13.08656235 -24.58285645 12.39578094 -23.88500977 11.68406677 C-9.53508129 -2.73996589 -9.53508129 -2.73996589 0 0 Z " fill="#A0D8CA" transform="translate(317,212)"/>
<path d="M0 0 C7.87441059 6.74949479 7.87441059 6.74949479 10.43196106 9.32516479 C11.01612289 9.91084229 11.60028473 10.49651978 12.20214844 11.09994507 C12.81582275 11.72035675 13.42949707 12.34076843 14.06176758 12.97998047 C14.72947678 13.65075623 15.39718597 14.32153198 16.08512878 15.01263428 C17.52390671 16.4585233 18.96155456 17.90553755 20.39817238 19.35357285 C22.67964013 21.65256607 24.96474923 23.9478824 27.25090027 26.24221802 C33.7468568 32.76250556 40.23717573 39.28838273 46.72290039 45.81884766 C50.70129635 49.82417564 54.6846721 53.82449634 58.67105675 57.82187271 C60.18028675 59.33726929 61.68762245 60.8545551 63.19294167 62.37383652 C75.83980957 77.00902766 75.83980957 77.00902766 92.3125 84.8125 C95.9893998 84.50031039 96.99022376 84.00738206 100.0625 81.6875 C102.55335575 78.23244202 103.12321007 75.77278399 103.1418457 71.6237793 C103.14888016 70.7424382 103.15591461 69.86109711 103.16316223 68.95304871 C103.16940865 67.52802788 103.16940865 67.52802788 103.17578125 66.07421875 C103.19898052 64.06053643 103.2230979 62.04686452 103.24804688 60.03320312 C103.28314882 56.86003666 103.31250105 53.68725296 103.32592773 50.51391602 C103.34142627 47.4502127 103.38164871 44.38762609 103.42578125 41.32421875 C103.42387283 40.38027756 103.42196442 39.43633636 103.41999817 38.46379089 C103.5238964 32.85147824 104.10586736 29.36130832 108 25 C111.03396585 23.11342652 113.31474801 22.75428815 116.86035156 22.77294922 C117.82104553 22.77310028 118.7817395 22.77325134 119.77154541 22.77340698 C120.80084167 22.78372955 121.83013794 22.79405212 122.890625 22.8046875 C123.95037537 22.8075174 125.01012573 22.81034729 126.10198975 22.81326294 C129.48477497 22.82445266 132.86729487 22.8495553 136.25 22.875 C138.54426701 22.88503135 140.83853817 22.89415693 143.1328125 22.90234375 C148.75529877 22.92438804 154.37763043 22.95785373 160 23 C160.06968807 33.27522425 160.12290652 43.55039174 160.15543652 53.82580471 C160.17105384 58.59774089 160.19221987 63.36951468 160.22631836 68.14135742 C160.25905259 72.75143581 160.27688256 77.36135857 160.28463173 81.97154427 C160.29015008 83.7253063 160.30092582 85.47906037 160.31719017 87.23275566 C160.49934287 107.69791255 160.49934287 107.69791255 155.24609375 114.15625 C154.35083984 114.82140625 154.35083984 114.82140625 153.4375 115.5 C152.83808594 115.9640625 152.23867188 116.428125 151.62109375 116.90625 C148.31602282 119.13617738 146.11467867 119.12361648 142.14083862 119.12025452 C140.26877243 119.12231651 140.26877243 119.12231651 138.35888672 119.12442017 C136.96826148 119.12088079 135.57763648 119.11724598 134.18701172 119.11352539 C132.7286072 119.11324344 131.27020253 119.1134014 129.8117981 119.1139679 C125.84508853 119.11425557 121.87840901 119.10836364 117.91170645 119.10139394 C113.7690302 119.09515546 109.62635331 119.09455621 105.4836731 119.09336853 C97.63555468 119.09025668 89.78745014 119.08204525 81.93933785 119.07201904 C71.33655761 119.05876681 60.7337736 119.05335682 50.13098717 119.04751682 C33.42064771 119.03810527 16.71033754 119.01818537 0 119 C0 79.73 0 40.46 0 0 Z " fill="#F87877" transform="translate(220,347)"/>
</svg>
