<?xml version="1.0" encoding="UTF-8"?>
<svg version="1.1" xmlns="http://www.w3.org/2000/svg" width="512" height="512">
<path d="M0 0 C0.92425781 -0.02578125 1.84851563 -0.0515625 2.80078125 -0.078125 C9.25550972 0.65556538 13.57607969 4.62779872 18.09765625 8.97265625 C18.73107437 9.57263931 19.36449249 10.17262238 20.0171051 10.79078674 C30.24630636 20.55622547 40.15906464 30.65485036 50.125 40.6875 C53.71812945 44.30447238 57.31304372 47.91963785 60.91218758 51.5306263 C62.32771637 52.95252129 63.7401339 54.37751151 65.15245056 55.80259705 C68.88668047 59.55097364 72.61175023 63.250388 76.63110352 66.69360352 C81.45085529 70.83143731 85.89331688 75.34355279 90.36341858 79.85075378 C91.94323133 81.44353491 93.52632586 83.03299157 95.11022949 84.6217041 C99.04042659 88.56514616 102.96510772 92.51406286 106.88995361 96.46282959 C110.21865714 99.81139027 113.54948931 103.15780693 116.8830719 106.50151062 C118.42931555 108.05415238 119.9724738 109.60981403 121.51550293 111.16564941 C126.08192939 115.75558313 130.70370348 120.19580186 135.62097168 124.4083252 C139.63799369 127.9882656 143.39083186 131.84603458 147.17822266 135.66555786 C148.7244274 137.22473727 150.27391896 138.78058621 151.82421875 140.33569336 C155.67094225 144.19565803 159.51214716 148.06109902 163.35351562 151.9263916 C166.61175696 155.20449442 169.8721299 158.48044992 173.13525391 161.75369263 C174.64826052 163.27309466 176.1581797 164.79551703 177.66796875 166.31811523 C182.83594669 171.51335966 188.11012322 176.49655328 193.6875 181.25 C200.38693437 187.38845114 204.99434599 192.58225762 205.75 201.94921875 C205.57177748 208.51003543 202.35941322 213.78572737 197.6875 218.25 C192.64270767 221.02138806 187.35124342 221.74430862 181.6875 222.25 C186.9880403 228.73891767 192.88033477 234.59480119 198.80908203 240.50195312 C200.55486079 242.24238419 202.29524537 243.98808003 204.03515625 245.734375 C205.16634632 246.86490396 206.29784671 247.99512252 207.4296875 249.125 C207.93829315 249.63562988 208.4468988 250.14625977 208.97091675 250.67236328 C211.74782316 253.43178309 214.59355422 256.06448298 217.55566406 258.62475586 C221.88761076 262.38025209 225.98077199 266.34690298 230.0546875 270.37890625 C231.19588547 271.5079966 231.19588547 271.5079966 232.36013794 272.65989685 C233.95313521 274.2391651 235.54466064 275.81991927 237.13476562 277.40209961 C238.75956609 279.01529903 240.38884437 280.62400035 242.02246094 282.22827148 C244.39719922 284.56045088 246.75850882 286.90549911 249.1171875 289.25390625 C249.84735077 289.96656143 250.57751404 290.67921661 251.32980347 291.41346741 C255.01477353 295.1144146 257.67501376 297.94611512 258.6875 303.25 C258.32970726 313.26819679 251.5922637 318.78970462 244.6875 325.25 C243.46707987 326.3056796 242.24453873 327.35890953 241.02050781 328.41040039 C236.74708522 332.14311472 232.73629222 336.08986895 228.75 340.125 C228.02562744 340.85315918 227.30125488 341.58131836 226.55493164 342.33154297 C224.26331697 344.63525646 221.97499348 346.94219474 219.6875 349.25 C216.66964919 352.29464779 213.64836584 355.33582967 210.625 358.375 C209.60901733 359.40343018 209.60901733 359.40343018 208.57250977 360.45263672 C203.15334639 365.8991595 197.58786197 371.15042883 191.40844727 375.7331543 C175.59108437 387.44341401 175.59108437 387.44341401 167.45751953 404.65625 C166.22706243 415.15711619 166.61561411 425.90344248 167.62953186 436.41271973 C168.09945943 442.34891524 167.1196967 445.35539249 163.6875 450.25 C160.51039095 453.71452478 157.16141432 456.11288706 152.34279281 456.37995183 C151.40959989 456.38228248 150.47640698 456.38461312 149.51493549 456.38701439 C147.89882231 456.3946262 147.89882231 456.3946262 146.25006038 456.40239179 C144.46789907 456.40313843 144.46789907 456.40313843 142.6497345 456.40390015 C140.76162986 456.41047353 140.76162986 456.41047353 138.83538169 456.4171797 C135.33451924 456.42914845 131.83367058 456.43479434 128.33279169 456.43936086 C124.55964082 456.44531579 120.78650644 456.45692588 117.0133667 456.46765137 C107.89771031 456.49217751 98.78204846 456.50680265 89.66636923 456.51971143 C87.09198322 456.52342315 84.51759774 456.5273964 81.94321227 456.5314641 C65.95875094 456.55669992 49.97428876 456.57875438 33.9898119 456.59119225 C30.28707183 456.59412197 26.58433179 456.59708363 22.8815918 456.60009766 C21.96128682 456.60084371 21.04098184 456.60158976 20.09278884 456.60235842 C5.18328249 456.61501295 -9.72610463 456.64823726 -24.63555523 456.68989949 C-39.94057759 456.73231674 -55.24553891 456.75588702 -70.5506199 456.76111281 C-79.14476638 456.76452712 -87.73872653 456.77628462 -96.33281517 456.80921555 C-103.65176651 456.83721434 -110.97049332 456.84821618 -118.28949406 456.83702008 C-122.02325177 456.83183296 -125.75653924 456.83472291 -129.49022865 456.85948563 C-133.54041755 456.886123 -137.58957134 456.87391982 -141.63981628 456.85800171 C-142.81677022 456.8718838 -143.99372415 456.88576588 -145.20634335 456.90006864 C-152.19489237 456.83231432 -156.93861598 455.87907009 -162.3125 451.25 C-167.12163222 446.07093453 -167.45979159 441.94788835 -167.45053101 435.12251282 C-167.45335229 434.28438228 -167.45617357 433.44625175 -167.45908034 432.58272332 C-167.46743785 429.76387984 -167.46876558 426.94507557 -167.47021484 424.1262207 C-167.47488227 422.10922637 -167.48002572 420.09223309 -167.48561096 418.07524109 C-167.49689983 413.725819 -167.50533025 409.3764038 -167.51173019 405.02697182 C-167.522402 398.14809739 -167.54264515 391.2692723 -167.56484985 384.39042664 C-167.62680012 364.8274461 -167.68077705 345.26446821 -167.71386719 325.70141602 C-167.73221536 314.90139162 -167.76115469 304.10144958 -167.8018719 293.30148572 C-167.82294007 287.58580443 -167.8383989 281.87022694 -167.84067917 276.15450478 C-167.84282744 270.77580213 -167.85871536 265.39731551 -167.88506889 260.01867867 C-167.89225672 258.04666587 -167.89436537 256.07462688 -167.89096642 254.10260391 C-167.88706116 251.40561651 -167.90156038 248.70931546 -167.92050171 246.0124054 C-167.91497201 245.23621914 -167.90944232 244.46003288 -167.90374506 243.66032583 C-167.96919001 238.24356471 -169.20290184 234.24260053 -171.3125 229.25 C-171.6425 228.26 -171.9725 227.27 -172.3125 226.25 C-174.09478936 225.10790183 -174.09478936 225.10790183 -176.3125 224.25 C-177.43978516 223.74919922 -177.43978516 223.74919922 -178.58984375 223.23828125 C-181.48724221 222.18657133 -184.06691899 221.83666947 -187.125 221.5 C-193.15294851 220.54978152 -197.09227731 218.67169061 -201.3125 214.25 C-204.79315959 209.19742963 -205.91347271 203.30656582 -205.015625 197.24609375 C-202.51328735 188.87678878 -195.16037508 182.86765895 -188.8347168 177.27172852 C-183.58628056 172.55804812 -178.57553437 167.63076222 -173.61031723 162.62298203 C-172.07238856 161.07200858 -170.5311114 159.52442775 -168.98904419 157.97756958 C-165.71899219 154.69623016 -162.4529397 151.41092855 -159.1875 148.125 C-155.38985379 144.30358179 -151.59049276 140.4838997 -147.78686905 136.66843033 C-146.28271813 135.15789029 -144.78165608 133.64432921 -143.2807312 132.13058472 C-139.39452985 128.23055211 -135.52774548 124.36380878 -131.34423828 120.78173828 C-126.46445766 116.59828582 -121.97479771 112.02420462 -117.4513855 107.46405029 C-115.83796486 105.83766731 -114.22126729 104.21460304 -112.60375977 102.59228516 C-109.17049254 99.14768516 -105.74119316 95.69915219 -102.3125 92.25 C-98.33391817 88.24767795 -94.3536508 84.24706185 -90.36911011 80.25067139 C-88.78962934 78.66478994 -87.21323203 77.07588904 -85.63696289 75.48681641 C-81.02157096 70.84815949 -76.35560956 66.35369723 -71.38476562 62.09741211 C-67.30135704 58.45707838 -63.48752553 54.53215096 -59.63658142 50.64924622 C-58.05676867 49.05646509 -56.47367414 47.46700843 -54.88977051 45.8782959 C-51.52783139 42.50502687 -48.16986181 39.12782398 -44.8125 35.75 C-40.91652651 31.83028165 -37.01886462 27.91227258 -33.1169281 23.99848938 C-31.57068445 22.44584762 -30.0275262 20.89018597 -28.48449707 19.33435059 C-9.40735532 0.15613868 -9.40735532 0.15613868 0 0 Z " fill="#FE6666" transform="translate(229.3125,27.75)"/>
<path d="M0 0 C4.88847052 2.92193525 8.68123748 6.42874284 12.6484375 10.48828125 C13.26465973 11.10970505 13.88088196 11.73112885 14.51577759 12.37138367 C16.47371377 14.34701736 18.42480731 16.32922455 20.375 18.3125 C22.94190048 20.91615267 25.51199663 23.51658827 28.0859375 26.11328125 C28.705755 26.73868805 29.32557251 27.36409485 29.96417236 28.00845337 C33.48464732 31.5406454 37.08209114 34.89103591 40.88916016 38.11401367 C46.96777428 43.54511408 52.57113819 49.52638305 58.30029297 55.32080078 C60.06263896 57.10141939 61.82812932 58.87887935 63.59375 60.65625 C64.38005798 61.45500549 64.38005798 61.45500549 65.18225098 62.26989746 C67.98912518 65.09480533 70.86414118 67.7839386 73.87744141 70.38842773 C78.20817067 74.13766093 82.29685406 78.1004482 86.3671875 82.12890625 C87.50838547 83.2579966 87.50838547 83.2579966 88.67263794 84.40989685 C90.26563521 85.9891651 91.85716064 87.56991927 93.44726562 89.15209961 C95.07206609 90.76529903 96.70134437 92.37400035 98.33496094 93.97827148 C100.70969922 96.31045088 103.07100882 98.65549911 105.4296875 101.00390625 C106.5249324 102.07288902 106.5249324 102.07288902 107.64230347 103.16346741 C111.32727353 106.8644146 113.98751376 109.69611512 115 115 C114.64220726 125.01819679 107.9047637 130.53970462 101 137 C99.77957987 138.0556796 98.55703873 139.10890953 97.33300781 140.16040039 C93.05958522 143.89311472 89.04879222 147.83986895 85.0625 151.875 C84.33812744 152.60315918 83.61375488 153.33131836 82.86743164 154.08154297 C80.57581697 156.38525646 78.28749348 158.69219474 76 161 C72.98214919 164.04464779 69.96086584 167.08582967 66.9375 170.125 C66.26017822 170.81062012 65.58285645 171.49624023 64.88500977 172.20263672 C61.01859093 176.08857571 57.0365568 179.75805462 52.88647461 183.33837891 C50.0732379 185.81629907 47.4405558 188.45352964 44.8125 191.125 C44.2656958 191.67559082 43.7188916 192.22618164 43.15551758 192.79345703 C41.43450493 194.52650817 39.71682168 196.26279773 38 198 C24.96926909 211.1854202 24.96926909 211.1854202 18.67236328 216.54150391 C16.10354581 218.78181275 13.79430172 221.22532712 11.4375 223.6875 C6.73422568 228.47031201 2.77916392 232.38299365 -4.0625 233.5 C-8.91123787 232.67468292 -12.88222516 229.77414849 -16 226 C-16.93873572 223.18379285 -17.12904463 221.44734869 -17.1418457 218.53198242 C-17.15239738 217.17993965 -17.15239738 217.17993965 -17.16316223 215.80058289 C-17.16732651 214.82869522 -17.17149078 213.85680756 -17.17578125 212.85546875 C-17.19898031 210.79621375 -17.22309768 208.73696892 -17.24804688 206.67773438 C-17.28315162 203.43214106 -17.31250239 200.18692214 -17.32592773 196.94116211 C-17.34142324 193.8079702 -17.38164393 190.67587113 -17.42578125 187.54296875 C-17.42291862 186.09424629 -17.42291862 186.09424629 -17.41999817 184.61625671 C-17.52215008 178.97425871 -18.0021115 175.33058142 -22 171 C-25.86737843 169.03856919 -29.0710444 168.74801231 -33.37609863 168.74171448 C-35.30661827 168.73147247 -35.30661827 168.73147247 -37.27613831 168.72102356 C-38.69516019 168.72344273 -40.11418181 168.72602699 -41.53320312 168.72875977 C-43.03320091 168.72437086 -44.53319626 168.71906811 -46.03318787 168.71292114 C-49.25907379 168.70143394 -52.48489413 168.69596268 -55.71080017 168.69503975 C-60.81218428 168.69309741 -65.91343288 168.67503597 -71.01477051 168.65428162 C-83.68418662 168.60511862 -96.35363944 168.57419816 -109.02313232 168.55297852 C-118.87244203 168.53645837 -128.72163535 168.51365809 -138.57086706 168.46995777 C-143.64163116 168.44817516 -148.7121742 168.44012408 -153.78298187 168.44235051 C-156.93755588 168.44068385 -160.09198548 168.42663621 -163.24650764 168.40913773 C-164.70860303 168.40353839 -166.17072837 168.40305285 -167.63282585 168.40807533 C-169.62985605 168.41421595 -171.62691783 168.40023914 -173.62390137 168.38526917 C-175.2996587 168.38225217 -175.2996587 168.38225217 -177.00926971 168.37917423 C-181.37096738 167.82618443 -184.0073785 166.20096411 -186.78823853 162.83642578 C-188.39201161 159.08240039 -188.41947994 155.62841388 -188.38818359 151.6171875 C-188.39344055 150.78568176 -188.39869751 149.95417603 -188.40411377 149.09747314 C-188.41728779 146.35645612 -188.40858496 143.61602265 -188.3984375 140.875 C-188.40045898 138.96598194 -188.40337104 137.05696464 -188.40713501 135.14794922 C-188.41155484 131.1499902 -188.40513824 127.15223247 -188.39111328 123.15429688 C-188.37402164 118.03290789 -188.38386464 112.91199058 -188.40183067 107.7906189 C-188.41267769 103.84949193 -188.40921794 99.90847655 -188.4014473 95.96734619 C-188.39944783 94.07912134 -188.40189566 92.19088631 -188.40888596 90.30267334 C-188.4165155 87.6624472 -188.40487531 85.02298205 -188.38818359 82.3828125 C-188.39425629 81.60448059 -188.40032898 80.82614868 -188.40658569 80.02423096 C-188.35371386 75.50381486 -187.90979605 72.5205369 -185 69 C-181.11806777 66.17394265 -178.39588908 65.62450268 -173.63063049 65.62145996 C-172.34506256 65.61325729 -171.05949463 65.60505463 -169.73497009 65.59660339 C-168.31753432 65.6025614 -166.90009962 65.60878047 -165.48266602 65.61523438 C-163.98428942 65.61112763 -162.48591601 65.60566614 -160.98754883 65.59895325 C-157.76490306 65.58723807 -154.5424285 65.58474037 -151.31976509 65.58930969 C-146.22227882 65.59612324 -141.12501756 65.58024474 -136.02757263 65.56091309 C-125.20589387 65.52306456 -114.3842348 65.51025918 -103.5625 65.5 C-91.88268218 65.48892477 -80.20296803 65.47356561 -68.52322143 65.42928743 C-63.45773492 65.41094114 -58.39250586 65.40703525 -53.32699406 65.41422272 C-50.17347493 65.41574597 -47.02008427 65.40495193 -43.86660004 65.39084435 C-42.4065315 65.38684621 -40.94643846 65.38795903 -39.48637962 65.39461708 C-37.48971463 65.40302134 -35.49299537 65.39125189 -33.49635315 65.37854004 C-32.38010339 65.37782753 -31.26385363 65.37711502 -30.11377811 65.37638092 C-25.61884363 64.8330514 -22.22459374 63.33179614 -19.14819336 59.98608398 C-17.39723612 55.43240377 -17.59927625 51.05961383 -17.62890625 46.22265625 C-17.61152591 44.07877443 -17.59394151 41.93489425 -17.57617188 39.79101562 C-17.56609629 36.42257675 -17.56250418 33.05424435 -17.56420898 29.68579102 C-17.56063593 26.42692497 -17.53328361 23.16887661 -17.50390625 19.91015625 C-17.51208878 18.90686783 -17.5202713 17.90357941 -17.52870178 16.86988831 C-17.46548635 10.92094502 -16.93643901 7.54519957 -13 3 C-9.16100435 -0.19916304 -4.87033388 -1.11850344 0 0 Z " fill="#77D7BE" transform="translate(373,216)"/>
<path d="M0 0 C9.02600618 1.12825077 9.02600618 1.12825077 13.22583008 4.79833984 C14.16286774 5.61582703 15.0999054 6.43331421 16.06533813 7.27557373 C21.32473724 12.10733037 26.3691838 17.14607075 31.38671875 22.2265625 C32.53958434 23.38572129 33.69298187 24.54435125 34.84687805 25.70248413 C37.85485031 28.72362213 40.85717011 31.75030702 43.85778809 34.77874756 C48.66733029 39.63176785 53.48384199 44.47784636 58.30365944 49.32065964 C59.96994422 50.997035 61.63270203 52.67684742 63.29508972 54.35708618 C68.03976471 59.13931714 72.82284894 63.79398501 77.94709778 68.17318726 C82.02667012 71.80346962 85.83171775 75.72464829 89.67591858 79.60075378 C91.25573133 81.19353491 92.83882586 82.78299157 94.42272949 84.3717041 C98.35292659 88.31514616 102.27760772 92.26406286 106.20245361 96.21282959 C109.53115714 99.56139027 112.86198931 102.90780693 116.1955719 106.25151062 C117.74181555 107.80415238 119.2849738 109.35981403 120.82800293 110.91564941 C125.39442939 115.50558313 130.01620348 119.94580186 134.93347168 124.1583252 C138.95049369 127.7382656 142.70333186 131.59603458 146.49072266 135.41555786 C148.0369274 136.97473727 149.58641896 138.53058621 151.13671875 140.08569336 C154.98344225 143.94565803 158.82464716 147.81109902 162.66601562 151.6763916 C165.92425696 154.95449442 169.1846299 158.23044992 172.44775391 161.50369263 C173.96076052 163.02309466 175.4706797 164.54551703 176.98046875 166.06811523 C182.14844669 171.26335966 187.42262322 176.24655328 193 181 C199.69943437 187.13845114 204.30684599 192.33225762 205.0625 201.69921875 C204.88427748 208.26003543 201.67191322 213.53572737 197 218 C191.44426686 221.23978971 184.35628259 222.51359876 178 222 C174.80663228 220.35283899 172.67106623 218.0399599 170.28515625 215.38671875 C169.62212997 214.70196976 168.9591037 214.01722076 168.27598572 213.3117218 C166.17458654 211.13030803 164.11847627 208.9116947 162.0625 206.6875 C159.97332862 204.48334601 157.87569838 202.28765234 155.77403259 200.09541321 C154.47260046 198.73193632 153.17999837 197.35996247 151.8974762 195.97868347 C151.31263962 195.35496353 150.72780304 194.73124359 150.12524414 194.08862305 C149.61659317 193.5393364 149.1079422 192.99004974 148.58387756 192.42411804 C145.04929035 189.24605079 141.79040061 188.55538133 137.03125 188.6796875 C133.64570842 189.21356136 131.55819552 190.80726098 129 193 C127.13461113 195.99411252 126.74996565 198.26453 126.74462891 201.76513672 C126.73766998 202.70646454 126.73071106 203.64779236 126.72354126 204.61764526 C126.72503677 206.13335617 126.72503677 206.13335617 126.7265625 207.6796875 C126.70627348 209.82682813 126.6854227 211.97396351 126.6640625 214.12109375 C126.64146412 217.50053338 126.62499175 220.87976563 126.61914062 224.25927734 C126.60961044 227.52479384 126.57582613 230.78937981 126.5390625 234.0546875 C126.54410797 235.06111298 126.54915344 236.06753845 126.55435181 237.10446167 C126.47389453 242.85297252 126.10523115 246.61052761 122 251 C117.70177736 253.55814306 114.56239925 254.37327236 109.58389282 254.36076355 C108.31352173 254.36488754 107.04315063 254.36901154 105.73428345 254.3732605 C104.33929228 254.36264514 102.94430329 254.35174075 101.54931641 254.34057617 C100.07061785 254.33972935 98.59191804 254.34020612 97.11322021 254.34190369 C93.10945981 254.34276292 89.10597012 254.32514896 85.10227251 254.30418181 C80.91425487 254.28540294 76.72623074 254.28366362 72.53817749 254.28010559 C64.6122241 254.27078868 56.68639514 254.2461797 48.7604965 254.21605712 C39.73515366 254.1825021 30.70980481 254.16602433 21.6844151 254.15097082 C3.12287291 254.11962982 -15.43855353 254.06687621 -34 254 C-34 253.67 -34 253.34 -34 253 C-22.78 253 -11.56 253 0 253 C0 169.51 0 86.02 0 0 Z " fill="#F87877" transform="translate(230,28)"/>
<path d="M0 0 C4.88847052 2.92193525 8.68123748 6.42874284 12.6484375 10.48828125 C13.26465973 11.10970505 13.88088196 11.73112885 14.51577759 12.37138367 C16.47371377 14.34701736 18.42480731 16.32922455 20.375 18.3125 C22.94190048 20.91615267 25.51199663 23.51658827 28.0859375 26.11328125 C28.705755 26.73868805 29.32557251 27.36409485 29.96417236 28.00845337 C33.48464732 31.5406454 37.08209114 34.89103591 40.88916016 38.11401367 C46.96777428 43.54511408 52.57113819 49.52638305 58.30029297 55.32080078 C60.06263896 57.10141939 61.82812932 58.87887935 63.59375 60.65625 C64.38005798 61.45500549 64.38005798 61.45500549 65.18225098 62.26989746 C67.98912518 65.09480533 70.86414118 67.7839386 73.87744141 70.38842773 C78.20817067 74.13766093 82.29685406 78.1004482 86.3671875 82.12890625 C87.50838547 83.2579966 87.50838547 83.2579966 88.67263794 84.40989685 C90.26563521 85.9891651 91.85716064 87.56991927 93.44726562 89.15209961 C95.07206609 90.76529903 96.70134437 92.37400035 98.33496094 93.97827148 C100.70969922 96.31045088 103.07100882 98.65549911 105.4296875 101.00390625 C106.5249324 102.07288902 106.5249324 102.07288902 107.64230347 103.16346741 C111.32219619 106.85931525 113.99206815 109.69687068 115 115 C114.625 117.375 114.625 117.375 114 119 C114 118.01 114 117.02 114 116 C14.34 116 -85.32 116 -188 116 C-188 74 -188 74 -185 69 C-181.21736668 66.04442739 -178.37000359 65.62448615 -173.63063049 65.62145996 C-172.34506256 65.61325729 -171.05949463 65.60505463 -169.73497009 65.59660339 C-168.31753432 65.6025614 -166.90009962 65.60878047 -165.48266602 65.61523438 C-163.98428942 65.61112763 -162.48591601 65.60566614 -160.98754883 65.59895325 C-157.76490306 65.58723807 -154.5424285 65.58474037 -151.31976509 65.58930969 C-146.22227882 65.59612324 -141.12501756 65.58024474 -136.02757263 65.56091309 C-125.20589387 65.52306456 -114.3842348 65.51025918 -103.5625 65.5 C-91.88268218 65.48892477 -80.20296803 65.47356561 -68.52322143 65.42928743 C-63.45773492 65.41094114 -58.39250586 65.40703525 -53.32699406 65.41422272 C-50.17347493 65.41574597 -47.02008427 65.40495193 -43.86660004 65.39084435 C-42.4065315 65.38684621 -40.94643846 65.38795903 -39.48637962 65.39461708 C-37.48971463 65.40302134 -35.49299537 65.39125189 -33.49635315 65.37854004 C-32.38010339 65.37782753 -31.26385363 65.37711502 -30.11377811 65.37638092 C-25.61884363 64.8330514 -22.22459374 63.33179614 -19.14819336 59.98608398 C-17.39723612 55.43240377 -17.59927625 51.05961383 -17.62890625 46.22265625 C-17.61152591 44.07877443 -17.59394151 41.93489425 -17.57617188 39.79101562 C-17.56609629 36.42257675 -17.56250418 33.05424435 -17.56420898 29.68579102 C-17.56063593 26.42692497 -17.53328361 23.16887661 -17.50390625 19.91015625 C-17.51208878 18.90686783 -17.5202713 17.90357941 -17.52870178 16.86988831 C-17.46548635 10.92094502 -16.93643901 7.54519957 -13 3 C-9.16100435 -0.19916304 -4.87033388 -1.11850344 0 0 Z " fill="#A0D8CA" transform="translate(373,216)"/>
<path d="M0 0 C19.32353827 -0.07009265 38.64705072 -0.12298944 57.97068977 -0.15543652 C66.94306819 -0.17090295 75.9153676 -0.1919882 84.88769531 -0.22631836 C92.70831698 -0.25622756 100.52888143 -0.27557663 108.34955871 -0.28226548 C112.49025359 -0.28617517 116.63078476 -0.29535879 120.77142715 -0.31719017 C124.67019192 -0.33757938 128.56872582 -0.34382891 132.46753883 -0.33932304 C133.89698225 -0.34014716 135.32643352 -0.34609844 136.75583076 -0.35761642 C138.71111564 -0.37259679 140.66652487 -0.36715345 142.62185669 -0.36076355 C143.71510317 -0.36352893 144.80834965 -0.36629431 145.93472481 -0.36914349 C150.80436242 0.21729489 154.03133418 1.95302554 157.34350586 5.53295898 C159.60732217 10.27112484 159.54813459 14.28612815 159.50390625 19.47265625 C159.5180381 20.97366127 159.5180381 20.97366127 159.53245544 22.50498962 C159.56105194 25.69103636 159.56418516 28.87633542 159.5625 32.0625 C159.56610899 35.25212555 159.57564605 38.44120963 159.60325623 41.63072205 C159.62002939 43.61174168 159.62293228 45.59293985 159.61024475 47.57398987 C159.64802705 52.52065195 159.71165804 56.02377324 163 60 C165.91964855 62.40059992 168.11662493 63.80369443 171.8125 64.625 C182.57046542 62.51559502 190.40527352 51.84039951 197.65234375 44.28173828 C199 43 199 43 200 43 C200.09919164 49.13805474 200.17162165 55.27563853 200.21972656 61.41430664 C200.23978913 63.50065239 200.2670459 65.58694227 200.30175781 67.6730957 C200.35051159 70.67933978 200.37302267 73.68483769 200.390625 76.69140625 C200.41127014 77.61772354 200.43191528 78.54404083 200.45318604 79.49842834 C200.45552422 86.31187322 199.11043813 90.60817749 194.40234375 95.7421875 C189.66230685 99.40781603 186.66142095 100.12502944 180.75483704 100.12025452 C179.44651917 100.12162918 178.13820129 100.12300385 176.79023743 100.12442017 C175.33712746 100.12088099 173.88401772 100.11724618 172.4309082 100.11352539 C170.90339154 100.11324337 169.37587474 100.11340154 167.84835815 100.1139679 C163.69782989 100.11425529 159.54733042 100.10836787 155.39680886 100.10139394 C151.06061718 100.09515081 146.72442486 100.09455584 142.38822937 100.09336853 C134.17536008 100.09025805 125.96250408 100.08204847 117.74964064 100.07201904 C106.65277207 100.05876131 95.55589988 100.05335571 84.45902538 100.04751682 C66.97267364 100.0381084 49.48634992 100.01818758 32 100 C32 67.33 32 34.66 32 1 C21.44 1 10.88 1 0 1 C0 0.67 0 0.34 0 0 Z " fill="#F87777" transform="translate(197,384)"/>
</svg>
