<?xml version="1.0" encoding="UTF-8"?>
<svg version="1.1" xmlns="http://www.w3.org/2000/svg" width="512" height="512">
<path d="M0 0 C46.2 0 92.4 0 140 0 C143.9049754 7.80995081 147.24462126 15.31744972 150.3125 23.4375 C150.54955658 24.06460876 150.78661316 24.69171753 151.03085327 25.33782959 C163.16387817 57.58125825 170.48464513 90.89916405 175 125 C175.16661133 126.23250488 175.33322266 127.46500977 175.50488281 128.73486328 C181.0986504 172.32108341 186.06691513 233.79925461 172 276 C104.68 276 37.36 276 -32 276 C-34.25253471 264.73732647 -34.25253471 264.73732647 -34.81640625 259.2421875 C-34.94080078 258.03820312 -35.06519531 256.83421875 -35.19335938 255.59375 C-35.31517578 254.3665625 -35.43699219 253.139375 -35.5625 251.875 C-35.75102539 250.06902344 -35.75102539 250.06902344 -35.94335938 248.2265625 C-36.3233467 244.48637308 -36.67086024 240.74499785 -37 237 C-37.10006348 235.86320801 -37.20012695 234.72641602 -37.30322266 233.55517578 C-38.36068881 219.438479 -38.24584683 205.27342666 -38.25 191.125 C-38.25044186 190.43523827 -38.25088371 189.74547653 -38.25133896 189.03481293 C-38.25854875 167.54768398 -37.86792038 146.32613576 -35 125 C-34.82657102 123.66830588 -34.65323321 122.33659988 -34.47998047 121.00488281 C-28.99720004 79.53871867 -18.78369278 37.56738556 0 0 Z M41 64 C40.31292969 64.55171875 39.62585938 65.1034375 38.91796875 65.671875 C29.99843719 73.65340611 24.84899572 85.55099207 23.7890625 97.34765625 C23.24206996 110.62274434 28.25477754 123.02800205 37.1875 132.8125 C46.85180447 141.63549225 59.29930476 146.80234406 72.4453125 146.27734375 C84.52261707 144.96619906 96.09080784 140.17513592 104.41015625 131.0625 C112.54879329 120.50426816 117.4814358 108.4769507 116 95 C113.80751421 81.42485881 107.77286511 70.63947469 97 62 C79.28421054 50.97329084 57.69468662 50.38985548 41 64 Z " fill="#000000" transform="translate(186,83)"/>
<path d="M0 0 C20.5513724 6.44845676 40.11663343 23.25061649 50.3203125 42.14453125 C58.68793822 58.6292437 61.15463746 74.88376437 61.203125 93.2265625 C61.20736607 94.31309679 61.20736607 94.31309679 61.21169281 95.42158127 C61.22660104 99.24752915 61.23588592 103.07344006 61.24023438 106.89941406 C61.24573754 110.83794723 61.26982785 114.77613795 61.29820633 118.71456337 C61.31686063 121.75840241 61.32203957 124.80215889 61.32357025 127.84605026 C61.32658598 129.29805773 61.33457788 130.75006412 61.34775543 132.20201492 C61.36488887 134.23307647 61.36108036 136.26428163 61.35644531 138.29541016 C61.36191376 140.0246019 61.36191376 140.0246019 61.36749268 141.78872681 C60.80338953 146.71804768 59.12638276 149.95809594 55.5 153.3125 C51.28925456 156.15475317 48.00389364 156.4765613 43 156 C35.30808172 152.85088944 28.20487781 148.24383457 21.125 143.9375 C18.92982685 142.6091447 16.73451221 141.28102318 14.5390625 139.953125 C13.44883789 139.29248047 12.35861328 138.63183594 11.23535156 137.95117188 C8.15296382 136.09224923 5.06000911 134.2528184 1.9609375 132.421875 C1.03651855 131.874104 0.11209961 131.32633301 -0.84033203 130.76196289 C-2.58128291 129.7313596 -4.32437221 128.70435805 -6.06982422 127.68139648 C-6.84084473 127.22321533 -7.61186523 126.76503418 -8.40625 126.29296875 C-9.07978516 125.8961792 -9.75332031 125.49938965 -10.44726562 125.09057617 C-12 124 -12 124 -13 122 C-12.71428531 120.12167316 -12.33938452 118.25671074 -11.92578125 116.40234375 C-11.6721582 115.22518799 -11.41853516 114.04803223 -11.15722656 112.83520508 C-10.8784668 111.5489624 -10.59970703 110.26271973 -10.3125 108.9375 C-2.78627011 73.0841356 -0.87466977 36.54057403 0 0 Z " fill="#000000" transform="translate(383,273)"/>
<path d="M0 0 C0.01458252 0.77561279 0.02916504 1.55122559 0.04418945 2.3503418 C0.88354034 43.03364962 4.41122838 83.15764274 13 123 C5.52800295 128.17835418 -2.26985721 132.75182266 -10.125 137.3125 C-12.7091139 138.81767347 -15.29214838 140.32469297 -17.875 141.83203125 C-18.81147873 142.37810532 -18.81147873 142.37810532 -19.76687622 142.93521118 C-25.70122836 146.39983677 -31.58370072 149.94532279 -37.4453125 153.53125 C-41.76275615 156.01345002 -45.06444835 156.33461367 -50 156 C-54.68170268 154.25583626 -57.21249191 152.12964161 -60 148 C-61.09771083 144.7068675 -61.14021954 142.24692657 -61.16113281 138.77880859 C-61.17074036 137.49251556 -61.1803479 136.20622253 -61.19024658 134.88095093 C-61.19510064 133.47011494 -61.19937796 132.05927686 -61.203125 130.6484375 C-61.20736607 129.57561964 -61.20736607 129.57561964 -61.21169281 128.48112869 C-61.22669968 124.68142579 -61.23591418 120.88176086 -61.24023438 117.08203125 C-61.2445898 113.96895435 -61.25836336 110.85615916 -61.28125 107.74316406 C-61.57728524 66.68203225 -61.57728524 66.68203225 -53 48 C-52.27876953 46.41638672 -52.27876953 46.41638672 -51.54296875 44.80078125 C-43.65013901 28.88069401 -19.42270738 0 0 0 Z " fill="#000000" transform="translate(129,273)"/>
<path d="M0 0 C64.68 0 129.36 0 196 0 C194.81502838 11.84971618 193.69446929 22.03284451 185.5859375 31.1328125 C177.11877034 37.24656764 168.39012543 37.58123298 158.25390625 37.51757812 C156.79083564 37.5230089 155.32777051 37.53013689 153.86471558 37.53881836 C149.91834286 37.55694138 145.97239182 37.55003029 142.02601242 37.53730202 C137.88004234 37.52711677 133.73410639 37.53658294 129.58813477 37.54284668 C122.62802707 37.5501071 115.66808961 37.54057773 108.70800781 37.52148438 C100.68149325 37.49971865 92.65538522 37.50677116 84.6288805 37.52879 C77.71559344 37.54698995 70.80242817 37.54947995 63.88912487 37.53903532 C59.76969434 37.53282555 55.65045438 37.5318949 51.53103638 37.54518127 C47.65661888 37.55680643 43.78272134 37.54859391 39.90835953 37.52560425 C38.49350977 37.52035246 37.07861563 37.52176985 35.66378403 37.53065491 C26.65838143 37.58195869 18.05066649 37.28967616 10.89622498 31.21320343 C3.06097569 23.3581431 0 10.82758466 0 0 Z " fill="#000000" transform="translate(158,379)"/>
<path d="M0 0 C10.94573845 6.87019754 19.99866853 16.00007084 27.75 26.25 C28.92949219 27.70792969 28.92949219 27.70792969 30.1328125 29.1953125 C35.13672349 35.4541228 39.56358195 41.91513041 43.75 48.75 C44.21905762 49.51578369 44.68811523 50.28156738 45.17138672 51.07055664 C47.41075558 54.79666561 49.11557126 58.16392815 50.75 62.25 C11.15 62.25 -28.45 62.25 -69.25 62.25 C-63.93820724 48.9705181 -55.09448906 37.37603812 -46.25 26.25 C-45.75064941 25.6214209 -45.25129883 24.9928418 -44.73681641 24.34521484 C-18.00518086 -8.91907846 -18.00518086 -8.91907846 0 0 Z " fill="#000000" transform="translate(265.25,1.75)"/>
<path d="M0 0 C3.43182289 2.76037928 5.24644552 4.69040841 6 9 C6.09956442 10.73405865 6.14812265 12.47138604 6.16113281 14.20825195 C6.17074036 15.24645584 6.1803479 16.28465973 6.19024658 17.35432434 C6.19449646 18.47103012 6.19874634 19.5877359 6.203125 20.73828125 C6.20882507 21.89241013 6.21452515 23.046539 6.22039795 24.23564148 C6.2298419 26.67751144 6.23637953 29.11939411 6.24023438 31.5612793 C6.24993576 35.28782501 6.28096405 39.01381817 6.3125 42.74023438 C6.31903077 45.11458006 6.32428095 47.48892969 6.328125 49.86328125 C6.3404718 50.97391434 6.3528186 52.08454742 6.36553955 53.22883606 C6.34830435 59.24551269 6.05452132 63.74763696 3 69 C-1.2340218 71.8226812 -5.02817503 71.785025 -10 71 C-13.62014431 68.34030214 -15.21391385 66.35230603 -16 62 C-16.09956442 60.26594135 -16.14812265 58.52861396 -16.16113281 56.79174805 C-16.17074036 55.75354416 -16.1803479 54.71534027 -16.19024658 53.64567566 C-16.19449646 52.52896988 -16.19874634 51.4122641 -16.203125 50.26171875 C-16.20882507 49.10758987 -16.21452515 47.953461 -16.22039795 46.76435852 C-16.2298419 44.32248856 -16.23637953 41.88060589 -16.24023438 39.4387207 C-16.24993576 35.71217499 -16.28096405 31.98618183 -16.3125 28.25976562 C-16.31903077 25.88541994 -16.32428095 23.51107031 -16.328125 21.13671875 C-16.3404718 20.02608566 -16.3528186 18.91545258 -16.36553955 17.77116394 C-16.34828585 11.74803146 -16.0343601 7.26706415 -13 2 C-8.52732607 -1.25285376 -5.2750801 -1.53456876 0 0 Z " fill="#000000" transform="translate(261,441)"/>
<path d="M0 0 C2.6595852 1.99778314 4.66061801 3.5845041 5.46096802 6.92260742 C5.64504835 9.24423186 5.66694727 11.51511379 5.62890625 13.84375 C5.63131821 14.69046265 5.63373016 15.53717529 5.63621521 16.4095459 C5.63523831 18.19479061 5.62188197 19.9800662 5.59692383 21.76513672 C5.5626056 24.4916108 5.57627335 27.21484312 5.59570312 29.94140625 C5.58880433 31.67970124 5.57913165 33.4179879 5.56640625 35.15625 C5.57136612 35.96783569 5.57632599 36.77942139 5.58143616 37.61560059 C5.47707959 42.65205775 4.79354826 45.35138576 1 49 C-2.23304479 50.6165224 -5.50525801 50.58353762 -9 50 C-11.92749086 48.43282074 -14.43411018 46.49410276 -15.64746094 43.29052734 C-16.14405177 40.06406254 -16.18284129 36.85834705 -16.203125 33.6015625 C-16.21167511 32.53269302 -16.21167511 32.53269302 -16.22039795 31.44223022 C-16.22982224 29.93773878 -16.23637169 28.43322694 -16.24023438 26.92871094 C-16.24993809 24.63960402 -16.28098335 22.35139641 -16.3125 20.0625 C-16.31903123 18.59635946 -16.32428123 17.13021255 -16.328125 15.6640625 C-16.3404718 14.98574371 -16.3528186 14.30742493 -16.36553955 13.60855103 C-16.34423039 9.01228 -15.43296335 5.89259749 -13 2 C-8.47609191 -1.18729888 -5.29441691 -1.54019401 0 0 Z " fill="#000000" transform="translate(315,441)"/>
<path d="M0 0 C3.11905047 2.57660691 4.7181368 4.1544104 6 8 C6.10837645 10.45495426 6.16401274 12.88066779 6.16796875 15.3359375 C6.17129715 16.05230377 6.17462555 16.76867004 6.17805481 17.50674438 C6.18311354 19.02141682 6.18546346 20.53610038 6.18530273 22.05078125 C6.18748541 24.35956356 6.2056412 26.66786494 6.22460938 28.9765625 C6.22754435 30.45051921 6.22952845 31.92447817 6.23046875 33.3984375 C6.23765427 34.08505463 6.24483978 34.77167175 6.25224304 35.47909546 C6.22706877 40.80277378 5.5045768 44.36266643 1.875 48.3125 C-1.86524737 50.50786259 -4.75814428 50.87407936 -9 50 C-11.8100346 48.20636089 -13.50940468 46.98119065 -15 44 C-15.28509874 38.48965485 -15.31377238 32.97820519 -15.35009766 27.46118164 C-15.36665215 25.6173032 -15.39393569 23.77348881 -15.43212891 21.92993164 C-15.48695665 19.26935595 -15.50877979 16.61028363 -15.5234375 13.94921875 C-15.54610687 13.12822189 -15.56877625 12.30722504 -15.59213257 11.46134949 C-15.57629466 7.1602932 -15.39551523 5.50540802 -12.65478516 2.00317383 C-8.212488 -1.34877101 -5.32134298 -1.2844621 0 0 Z " fill="#000000" transform="translate(207,441)"/>
</svg>
