<?xml version="1.0" encoding="UTF-8"?>
<svg version="1.1" xmlns="http://www.w3.org/2000/svg" width="512" height="512">
<path d="M0 0 C1.23865511 -0.00453111 2.47731023 -0.00906223 3.75350034 -0.01373065 C7.16616583 -0.02414904 10.57861942 -0.02570942 13.99128556 -0.02334189 C17.68199032 -0.02293175 21.37266429 -0.03399174 25.06335449 -0.04345703 C32.28506154 -0.06002595 39.50673592 -0.06556473 46.72846039 -0.06668179 C52.60337542 -0.06763432 58.47827974 -0.07175482 64.35319138 -0.07808304 C81.03567336 -0.09568507 97.71812968 -0.10492366 114.40062101 -0.10342209 C115.74790458 -0.10330222 115.74790458 -0.10330222 117.12240601 -0.10317993 C118.02170091 -0.10309817 118.92099582 -0.10301641 119.84754209 -0.10293217 C134.41169243 -0.1021198 148.97573921 -0.12124773 163.53985961 -0.14945666 C178.51970519 -0.17824017 193.49950037 -0.19199392 208.47937429 -0.19026911 C216.87913284 -0.18960705 225.27878286 -0.1950185 233.67851639 -0.21662521 C240.83200295 -0.23490924 247.98533178 -0.23912555 255.13883169 -0.22560637 C258.78242322 -0.21911258 262.42571281 -0.21882777 266.0692749 -0.23631287 C291.29906279 -0.34961884 312.34023711 1.70684798 331.36410522 20.26742554 C345.09331056 35.73175951 350.57603644 53.62220152 349.55453491 73.99984741 C349.06239753 79.8600679 347.77650159 85.56739736 346.36410522 91.26742554 C345.55328491 91.48656616 344.7424646 91.70570679 343.90707397 91.93148804 C327.56233224 96.61228718 315.14292098 104.43881322 306.36410522 119.26742554 C302.55386352 127.12751113 300.23928787 134.97628379 298.55160522 143.51742554 C298.31079224 144.67967651 298.06997925 145.84192749 297.8218689 147.03939819 C296.45154903 153.70137998 295.14477808 160.37556982 293.8417511 167.05099487 C293.13220147 170.68215125 292.41757068 174.31230455 291.70361328 177.94259644 C291.18376568 180.60574296 290.67520175 183.27087228 290.16757202 185.93637085 C289.8441255 187.59627281 289.52032955 189.25610673 289.19613647 190.91586304 C289.05567902 191.67102203 288.91522156 192.42618103 288.77050781 193.20422363 C287.25960037 200.83376046 284.71269775 205.73271659 278.36410522 210.26742554 C275.46214833 211.22526211 272.81246207 211.3940905 269.76848125 211.3988533 C268.84521752 211.40269445 267.92195379 211.40653559 266.97071236 211.41049314 C265.95992822 211.40962665 264.94914407 211.40876017 263.9077301 211.40786743 C262.83119354 211.41083855 261.75465698 211.41380968 260.6454981 211.41687083 C257.02589514 211.42556608 253.40632523 211.42706678 249.78671265 211.42855835 C247.1965274 211.4331859 244.60634283 211.43821047 242.01615906 211.44360352 C234.97069779 211.45718021 227.92524221 211.46321041 220.87977004 211.46761417 C216.4802175 211.4703775 212.08066716 211.474615 207.6811161 211.47911835 C195.49884142 211.49130974 183.31656849 211.50160958 171.13428783 211.50499344 C170.35473988 211.505213 169.57519193 211.50543257 168.77202131 211.50565879 C167.99061566 211.50587707 167.20921001 211.50609535 166.40412539 211.50632024 C164.82071698 211.5067637 163.23730856 211.50721027 161.65390015 211.50765991 C160.86847603 211.50788134 160.08305191 211.50810277 159.27382705 211.50833091 C146.54619327 211.51227922 133.81861672 211.52973481 121.09100505 211.55301943 C108.02224892 211.57673512 94.95352151 211.58919537 81.88474351 211.59036136 C74.54769002 211.59127795 67.21071114 211.59702643 59.87367821 211.61518097 C52.97329799 211.63219501 46.07306159 211.63383296 39.17266655 211.62504196 C36.63904695 211.62426987 34.10541983 211.6286369 31.57181931 211.63850021 C28.11485344 211.65116972 24.65839337 211.64536964 21.20143127 211.63491821 C19.6952933 211.64700282 19.6952933 211.64700282 18.1587283 211.65933156 C11.02034536 211.60880907 6.10668606 210.69579272 0.60238647 205.82211304 C-2.77774726 201.30699356 -3.42410556 195.81647613 -4.44839478 190.39242554 C-4.81178955 188.60083008 -4.81178955 188.60083008 -5.18252563 186.77304077 C-6.02204444 182.60849246 -6.83276644 178.439108 -7.63589478 174.26742554 C-8.81139078 168.1669283 -9.99293194 162.06771864 -11.18652344 155.97073364 C-11.68724397 153.38745396 -12.1725881 150.80162521 -12.65664673 148.21517944 C-15.16476598 135.10370648 -18.37081828 123.06089304 -26.63589478 112.26742554 C-27.08577759 111.65383179 -27.5356604 111.04023804 -27.99917603 110.40805054 C-36.83454084 99.15851562 -50.21271123 93.46308899 -63.98355103 91.23617554 C-66.63589478 90.26742554 -66.63589478 90.26742554 -67.93667603 88.05648804 C-73.17787237 67.15026349 -70.45332088 48.21909534 -59.44839478 29.70492554 C-49.90610698 15.25753085 -35.18588639 4.9550842 -18.22471046 1.21895409 C-12.13753104 0.0345301 -6.18473366 -0.01676171 0 0 Z " fill="#000000" transform="translate(113.63589477539063,73.73257446289063)"/>
<path d="M0 0 C10.87016027 6.98796017 17.09115029 16.57251348 20.17999268 28.98078918 C20.87969529 32.27307652 21.54851325 35.56708256 22.18314934 38.87231445 C22.60760263 41.07905516 23.04522911 43.28283636 23.48622131 45.48632812 C24.73605985 51.74385781 25.96179271 58.0060466 27.18139648 64.26953125 C27.93247767 68.12202826 28.6977622 71.97149918 29.47113228 75.81958008 C29.76009953 77.27273854 30.04359954 78.72699664 30.32118034 80.18237305 C32.40861287 91.12580243 34.71479375 101.79791885 43.93714714 108.9462285 C51.59898433 114.02948785 59.75270118 115.11524313 68.7434082 115.03527832 C69.83943769 115.04151828 70.93546717 115.04775825 72.06470966 115.0541873 C75.7087283 115.0700426 79.35207108 115.05754176 82.99609375 115.04492188 C85.62023303 115.05034628 88.24436926 115.05747072 90.86849976 115.06616211 C97.23887335 115.08388772 103.60905773 115.08013411 109.97943854 115.06851155 C115.15978016 115.0594539 120.34006899 115.05826326 125.52041626 115.06260681 C126.62911197 115.06352621 126.62911197 115.06352621 127.76020557 115.06446418 C129.26204166 115.06574317 130.76387774 115.06704002 132.26571381 115.06835455 C146.32684962 115.07974289 160.38788087 115.06667413 174.44899952 115.04515308 C186.49697649 115.02728367 198.54479925 115.03038827 210.59277344 115.04882812 C224.605835 115.07026578 238.61880508 115.07864441 252.63188076 115.06637907 C254.12799007 115.06510496 255.6240994 115.06384748 257.12020874 115.06260681 C257.85619759 115.06198971 258.59218645 115.06137261 259.35047799 115.06073681 C264.52067193 115.05729257 269.69080753 115.06309218 274.86099243 115.07252502 C281.82802559 115.08495755 288.79476366 115.07602344 295.76176834 115.052948 C298.31466821 115.04767086 300.86759262 115.04915755 303.42048264 115.05799866 C306.91305442 115.06897647 310.40470334 115.05516205 313.8972168 115.03527832 C315.40206115 115.04866265 315.40206115 115.04866265 316.9373064 115.06231737 C326.6460376 114.95556592 335.52394379 112.40446856 342.62416077 105.53662109 C349.24641622 97.69183481 350.86324017 87.81735937 352.73046875 78.02734375 C353.02609264 76.54071039 353.32327785 75.05438675 353.62193298 73.56835938 C354.40007515 69.68165993 355.16275565 65.79211858 355.92034912 61.90136719 C357.13302723 55.67616886 358.36034035 49.45399922 359.60494804 43.23510742 C360.03209927 41.08212941 360.44696686 38.92704509 360.8608551 36.77148438 C363.79756469 21.80370022 368.33132115 10.31748548 380.9140625 1.03125 C391.37898825 -5.50932859 403.10388206 -6.96039742 415.17578125 -5.01171875 C425.87121718 -2.12106039 436.04315596 4.49669967 441.85546875 14.05078125 C443.12543956 16.5166721 444.28054952 18.95614693 445.3203125 21.52734375 C445.66553955 22.34348145 446.0107666 23.15961914 446.36645508 24.00048828 C447.68088397 28.86054453 447.62860541 33.43494183 447.58984375 38.44921875 C447.58232841 40.12972321 447.58232841 40.12972321 447.57466125 41.84417725 C447.40294147 57.12615059 446.36575368 72.37310858 445.34887695 87.61767578 C445.06036083 91.94634164 444.78912995 96.27590084 444.5224638 100.60596085 C444.31110959 104.00229357 444.08987179 107.39793056 443.86585426 110.7934494 C443.7618486 112.3893379 443.66093939 113.98543192 443.56348228 115.5817337 C442.17818467 138.05385202 436.93158335 157.33209757 420.3203125 173.52734375 C403.44566818 187.68120494 385.0386019 189.68532084 363.93756104 189.66105652 C362.38798268 189.66292729 360.8384048 189.66522905 359.28882766 189.66792184 C355.05145256 189.67401335 350.81409728 189.67390938 346.57671881 189.67272747 C341.9985305 189.67252279 337.42034845 189.67804859 332.84216309 189.68278503 C323.88054039 189.69107749 314.91892428 189.69383924 305.95729807 189.69439741 C298.67027937 189.69487322 291.38326283 189.69693119 284.09624481 189.70009804 C263.4193338 189.7089006 242.74242797 189.71351801 222.06551507 189.71276756 C220.95173689 189.71272761 219.83795872 189.71268765 218.69042969 189.71264648 C217.017714 189.71258516 217.017714 189.71258516 215.31120607 189.7125226 C197.24088281 189.7121162 179.17058039 189.72168545 161.10026315 189.73578485 C142.52925369 189.75016017 123.95825438 189.75705441 105.38723922 189.75619107 C94.96766641 189.75585952 84.54811545 189.75858862 74.12854767 189.76936913 C65.25714152 189.77848931 56.38576713 189.7806369 47.51435831 189.7738597 C42.99213714 189.77060223 38.46997686 189.77050982 33.94776154 189.77921295 C29.79997625 189.78711308 25.65229979 189.78561093 21.50451705 189.77692882 C20.01197868 189.77540154 18.51943204 189.77718055 17.02690342 189.7827889 C-5.51040106 189.86179934 -24.51416435 185.70799394 -41.359375 169.9453125 C-53.93707129 156.83825189 -59.04445292 140.84266287 -60.25219727 123.0769043 C-60.30111115 122.36662079 -60.35002502 121.65633728 -60.40042114 120.92453003 C-60.56033646 118.58790111 -60.71609443 116.25102239 -60.87109375 113.9140625 C-60.92533949 113.10342661 -60.97958523 112.29279072 -61.03547478 111.4575901 C-61.32375995 107.14843382 -61.6088896 102.83908241 -61.89135742 98.52954102 C-62.12184646 95.02005571 -62.35756342 91.51098823 -62.59838867 88.00219727 C-64.89086425 54.56110028 -64.89086425 54.56110028 -64.953125 38.515625 C-64.96013931 37.49095627 -64.96715363 36.46628754 -64.97438049 35.41056824 C-64.89268344 23.61022581 -61.4372062 15.20640982 -53.0625 6.6796875 C-37.92610037 -6.99269971 -18.08709218 -9.93999089 0 0 Z " fill="#000000" transform="translate(64.6796875,184.47265625)"/>
<path d="M0 0 C16.5 0 33 0 50 0 C56.91045814 27.64183255 56.91045814 27.64183255 52.19921875 37.03125 C48.75203142 42.6904761 43.26308091 46.91230636 37 49 C28.15787193 49.80986458 21.05863918 49.08505187 14.03125 43.41015625 C9.03189961 38.40021402 7.19830234 32.83738294 5.51660156 26.07666016 C4.91628666 23.66348505 4.28187587 21.26015586 3.6484375 18.85546875 C2.73770429 15.3429119 1.82900139 11.83001654 0.953125 8.30859375 C0.76911133 7.57439209 0.58509766 6.84019043 0.39550781 6.08374023 C0 4 0 4 0 0 Z " fill="#000000" transform="translate(399,389)"/>
<path d="M0 0 C16.5 0 33 0 50 0 C49.06562497 7.47500026 47.55878276 14.35955834 45.6875 21.625 C45.39166016 22.82640625 45.09582031 24.0278125 44.79101562 25.265625 C42.30102032 34.96746416 39.28495244 41.11091681 31 47 C25.05546263 50.04139121 16.98029686 50.20912138 10.62109375 48.27734375 C4.03956143 45.19264075 -1.19012456 40.00077729 -4.1875 33.375 C-7.07227226 21.39209983 -3.00204057 12.00816226 0 0 Z " fill="#000000" transform="translate(63,389)"/>
</svg>
