<?xml version="1.0" encoding="UTF-8"?>
<svg version="1.1" xmlns="http://www.w3.org/2000/svg" width="512" height="512">
<path d="M0 0 C3.85192707 -0.00993661 7.70336775 -0.0412144 11.55517578 -0.07226562 C14.0226206 -0.07877772 16.49006913 -0.08403517 18.95751953 -0.08789062 C20.67137848 -0.10641083 20.67137848 -0.10641083 22.41986084 -0.12530518 C24.01003021 -0.12080353 24.01003021 -0.12080353 25.63232422 -0.11621094 C26.55841492 -0.11985657 27.48450562 -0.1235022 28.43865967 -0.1272583 C31.58292885 0.31767918 33.46406154 1.4087679 36.03564453 3.24023438 C37.8949582 6.00103345 38.35273352 8.31430671 38.41064453 11.61523438 C38.43900391 12.34484375 38.46736328 13.07445312 38.49658203 13.82617188 C37.08354896 21.22663323 29.98465558 26.43997162 24.84814453 31.42773438 C18.0872703 38.09430321 11.85153742 44.73551597 6.03564453 52.24023438 C5.0408155 53.45045633 4.04177635 54.65722436 3.03955078 55.86132812 C-42.1223048 110.23892584 -66.21861483 173.8813877 -81.74169922 242.02539062 C-92.07437761 287.29945122 -105.71289953 332.99491479 -132.96435547 371.24023438 C-133.70427734 372.28695313 -134.44419922 373.33367187 -135.20654297 374.41210938 C-140.62824942 381.85972037 -146.62708117 388.57894906 -152.96435547 395.24023438 C-153.58439453 395.92472656 -154.20443359 396.60921875 -154.84326172 397.31445312 C-183.25843394 427.63668389 -226.12893909 441.21073129 -266.58007812 443.14257812 C-316.64386579 444.58721202 -367.16158781 434.14997285 -408.25463867 404.37841797 C-410.09082818 403.15603963 -411.97459815 402.18815269 -413.96435547 401.24023438 C-416.24482196 405.7438372 -418.50410565 410.25739157 -420.74511719 414.78076172 C-421.55405982 416.41257751 -422.36556043 418.04312786 -423.1796875 419.67236328 C-436.18618177 445.79412776 -447.32554329 473.79953703 -450.10888672 503.04101562 C-451.16577529 506.99348931 -452.90472574 508.60328505 -455.96435547 511.24023438 C-456.29435547 511.57023437 -456.62435547 511.90023438 -456.96435547 512.24023438 C-461.04531863 512.77821445 -465.21415525 513.17460421 -468.92529297 511.19335938 C-472.28245305 508.40937296 -473.8333804 506.52843218 -474.27294922 502.20507812 C-475.58635811 472.97426765 -461.88363226 443.26675924 -449.96435547 417.24023438 C-449.53300293 416.29776855 -449.10165039 415.35530273 -448.65722656 414.38427734 C-444.22840691 404.77001352 -439.813974 395.35437204 -433.94873047 386.51757812 C-432.71878217 384.32864123 -432.71878217 384.32864123 -433.51123047 382.29101562 C-435.4082576 379.61375959 -437.41113715 377.05025974 -439.46435547 374.49023438 C-456.22099811 353.07879831 -467.43741162 328.10983659 -471.96435547 301.24023438 C-472.21378906 299.94327637 -472.21378906 299.94327637 -472.46826172 298.62011719 C-474.22102848 288.73889458 -474.36257857 278.99329249 -474.33935547 268.99023438 C-474.33881165 268.10861633 -474.33826782 267.22699829 -474.33770752 266.31866455 C-474.29619885 251.64485334 -473.27631756 237.5793806 -469.96435547 223.24023438 C-469.75536621 222.30663086 -469.54637695 221.37302734 -469.33105469 220.41113281 C-462.01958728 188.61309553 -446.26529309 158.86581925 -424.96435547 134.24023438 C-424.30564453 133.47066406 -423.64693359 132.70109375 -422.96826172 131.90820312 C-412.62620021 120.11942602 -401.47366012 108.72231933 -388.96435547 99.24023438 C-388.33319824 98.74910156 -387.70204102 98.25796875 -387.05175781 97.75195312 C-313.13850494 40.33428832 -216.02736367 18.08724256 -65.52685547 2.11523438 C-64.42897705 2.03966309 -63.33109863 1.9640918 -62.19995117 1.88623047 C-41.4826383 0.55118507 -20.75797616 0.03243856 0 0 Z " fill="#4BAE4F" transform="translate(473.96435546875,-0.240234375)"/>
<path d="M0 0 C3.18407594 1.79104272 4.52721167 3.20485599 6.375 6.3125 C7.21219504 9.91243865 6.89539601 12.41841597 6 16 C3.29356264 20.00501577 0.7163211 22.00672616 -3.59375 24.12890625 C-4.69638184 24.68255859 -5.79901367 25.23621094 -6.93505859 25.80664062 C-8.11148926 26.38607422 -9.28791992 26.96550781 -10.5 27.5625 C-12.96563495 28.80464922 -15.42498784 30.05888349 -17.8828125 31.31640625 C-18.80098251 31.78537827 -18.80098251 31.78537827 -19.73770142 32.26382446 C-48.42814697 47.0019255 -75.29528235 66.35303059 -100 87 C-100.59184082 87.49274414 -101.18368164 87.98548828 -101.79345703 88.49316406 C-108.12992282 93.77621684 -114.37505814 99.14977658 -120.47290039 104.70825195 C-122.03169807 106.12187709 -123.59798941 107.52734964 -125.17626953 108.91918945 C-132.00541577 114.95843552 -138.47358155 121.32015374 -144.90551758 127.77514648 C-146.6917467 129.5667595 -148.48329347 131.35293055 -150.27539062 133.13867188 C-156.06519241 138.92516205 -161.69896979 144.75669184 -167 151 C-168.4132355 152.5448126 -169.82940409 154.08695325 -171.25 155.625 C-175.31985161 160.12942899 -179.0650586 164.82671367 -182.77685547 169.62451172 C-185.86646621 173.60389613 -189.07393649 177.4454047 -192.375 181.25 C-198.50493299 188.37451022 -203.89857956 195.99849925 -209.32958984 203.66064453 C-210.98894633 205.98451969 -212.67137699 208.28958124 -214.36328125 210.58984375 C-220.91904477 219.51784056 -227.05021887 228.58106285 -232.80273438 238.04541016 C-234.00236203 240.00385612 -235.22336574 241.94707073 -236.453125 243.88671875 C-246.13098636 259.15712256 -255.20895107 274.67957513 -263 291 C-263.7719873 292.59980713 -263.7719873 292.59980713 -264.55957031 294.23193359 C-278.54611559 323.28303851 -292.05815772 353.37570408 -295.14453125 385.80078125 C-296.20141982 389.75325494 -297.94037027 391.36305068 -301 394 C-301.33 394.33 -301.66 394.66 -302 395 C-306.08096316 395.53798008 -310.24979978 395.93436984 -313.9609375 393.953125 C-317.31809758 391.16913859 -318.86902493 389.2881978 -319.30859375 384.96484375 C-320.62200265 355.73403327 -306.9192768 326.02652487 -295 300 C-294.56864746 299.05753418 -294.13729492 298.11506836 -293.69287109 297.14404297 C-288.92376912 286.79108029 -283.94804489 276.73432723 -278 267 C-276.8824866 265.10017492 -275.77387047 263.19528914 -274.66479492 261.29052734 C-264.05266524 243.10614598 -253.13773787 225.21167704 -241 208 C-240.56768066 207.38398926 -240.13536133 206.76797852 -239.68994141 206.13330078 C-237.27753455 202.70051748 -234.83776037 199.28883123 -232.37353516 195.89306641 C-231.39189653 194.54012899 -230.41267258 193.18543826 -229.43505859 191.82958984 C-221.03260396 180.19070681 -212.25416881 168.9720911 -203 158 C-201.97388008 156.77740942 -200.94783538 155.55475571 -199.921875 154.33203125 C-195.01422826 148.49704599 -190.06485793 142.69940733 -185 137 C-184.36191406 136.28070313 -183.72382813 135.56140625 -183.06640625 134.8203125 C-173.35675261 123.95262678 -163.41148798 113.32380704 -153.125 103 C-152.43599609 102.30640381 -151.74699219 101.61280762 -151.03710938 100.89819336 C-147.11365648 96.98654103 -143.08340287 93.26217649 -138.88867188 89.64355469 C-136.08893621 87.20717665 -133.39426163 84.66349655 -130.6875 82.125 C-124.98541755 76.82702811 -119.08614272 71.85422911 -113 67 C-111.88208806 66.0907337 -110.7649394 65.1805284 -109.6484375 64.26953125 C-87.10539009 45.94639489 -63.22017318 29.42544762 -38 15 C-36.8641748 14.34692871 -35.72834961 13.69385742 -34.55810547 13.02099609 C-31.4632409 11.24902863 -28.35276554 9.50710748 -25.23171997 7.78170776 C-24.00947377 7.10255263 -22.79096932 6.41661223 -21.57662964 5.72341919 C-14.51373074 1.70493455 -8.2893157 -1.65806448 0 0 Z " fill="#388E3C" transform="translate(319,117)"/>
</svg>
