<?xml version="1.0" standalone="no"?>
<svg xmlns="http://www.w3.org/2000/svg" width="24" height="24"><rect width="24" height="24" opacity="0"></rect><g><path d="M4.75 2.04Q4.1 2.14 3.37 2.9Q2.64 3.67 2.24 4.79Q1.85 5.9 2.09 6.91Q2.74 9.77 5.23 13.08Q7.73 16.39 10.99 18.88Q14.26 21.36 17.06 21.94Q18.07 22.13 19.06 21.84Q20.04 21.55 20.76 20.81Q21.07 20.5 21.38 20.21Q21.77 19.82 21.92 19.27Q22.08 18.72 21.94 18.19Q21.79 17.66 21.38 17.33L18.89 15.43Q18.36 14.98 17.66 15.01Q16.97 15.05 16.46 15.53L16.27 15.72Q16.01 15.98 15.88 16.1Q15.74 16.22 15.48 16.49Q15.17 16.8 14.71 16.86Q14.26 16.92 13.85 16.68Q12.29 15.7 10.22 13.64Q8.16 11.59 7.22 10.13Q6.98 9.72 7.04 9.26Q7.1 8.81 7.42 8.5Q7.82 8.11 8.23 7.73L8.5 7.46Q9 6.96 9.02 6.26Q9.05 5.57 8.57 5.04L6.74 2.78Q6.36 2.33 5.83 2.14Q5.3 1.94 4.75 2.04Z" fill="rgba(0,0,0,0.9019607843137255)"></path></g></svg>